<svg width="20" height="20" viewBox="0 0 20 20" fill="none" xmlns="http://www.w3.org/2000/svg">
<path d="M17.0816 4.38838C16.9816 3.90955 16.539 3.55209 16.0512 3.55719C14.5759 3.57256 13.0899 3.49332 11.62 3.3244C11.6351 2.86073 11.3488 2.42589 10.8922 2.28158L9.84109 1.94938C9.32999 1.78784 8.78395 2.04651 8.5654 2.53161L7.60026 2.22658C7.04868 2.05224 6.45553 2.36723 6.27807 2.92872L5.47346 5.47448C5.296 6.03597 5.60039 6.63463 6.15197 6.80896L7.10928 7.11152L5.28407 12.8865C5.22209 13.0826 5.13503 13.2703 5.0254 13.4442L3.84546 15.3153C3.64347 15.6357 3.58468 16.028 3.68417 16.3919C3.78378 16.7563 4.03321 17.0596 4.36841 17.2242L5.51399 17.7868C5.57265 17.8155 5.63287 17.8396 5.69429 17.859C5.99213 17.9532 6.31636 17.9366 6.60853 17.8081C6.96035 17.6534 7.2292 17.3525 7.34612 16.9826L10.1228 8.19728C11.2945 8.84851 12.5165 9.63195 13.8324 10.5767C13.9229 10.6417 14.0211 10.6901 14.1232 10.7224C14.4752 10.8336 14.8726 10.7519 15.1544 10.488C16.9312 8.82383 17.5796 6.77162 17.0816 4.38838ZM6.47382 5.79065L7.27842 3.24488L8.23573 3.54745L7.43112 6.09322L6.47382 5.79065ZM6.34576 16.6664C6.31398 16.767 6.2402 16.8124 6.19903 16.8305C6.15761 16.8487 6.07383 16.8724 5.97961 16.8261L4.83396 16.2635C4.74205 16.2184 4.7087 16.1399 4.69697 16.0971C4.6854 16.0547 4.67408 15.9705 4.72897 15.8835L5.90893 14.0123C6.06813 13.7597 6.19443 13.4874 6.28442 13.2027L9.51925 2.96769L10.5706 3.29896L6.34576 16.6664ZM14.4499 9.70571C14.4496 9.70574 14.4477 9.70617 14.4452 9.70423C13.0282 8.68687 11.714 7.85018 10.4508 7.15941L11.3336 4.36623C12.8973 4.55252 14.4783 4.63959 16.0384 4.62217C16.0418 4.6221 16.0515 4.62932 16.0565 4.63434C16.4721 6.64384 15.9453 8.30359 14.4499 9.70571Z" fill="#222222"/>
</svg>
