<svg width="239" height="609" viewBox="0 0 239 609" fill="none" xmlns="http://www.w3.org/2000/svg">
<path d="M101.868 0H133.041V608.914H101.868V0Z" fill="#121212"/>
<path d="M185.964 465.634C185.964 472.566 180.345 478.185 173.413 478.185H117.73C114.02 478.185 111.013 475.178 111.013 471.468C111.013 467.758 114.02 464.75 117.73 464.75H166.696C169.918 464.75 172.53 462.139 172.53 458.917C172.53 455.695 175.141 453.083 178.363 453.083H179.247C182.957 453.083 185.964 456.091 185.964 459.801V465.634Z" fill="#121212"/>
<path d="M173.476 409.244C182.838 409.244 190.638 415.927 192.367 424.783C193.215 424.617 194.092 424.529 194.989 424.529C200.979 424.529 206.064 428.406 207.871 433.788C209.901 432.582 212.271 431.889 214.803 431.889C222.307 431.889 228.39 437.972 228.39 445.476C228.39 452.862 222.495 458.872 215.154 459.058L214.803 459.062H154.228L153.833 459.057C145.574 458.848 138.943 452.087 138.943 443.777C138.943 435.335 145.786 428.492 154.228 428.492L154.229 428.243C154.363 417.727 162.929 409.244 173.476 409.244Z" fill="#121212"/>
<path d="M42.4255 384.672C42.4255 391.603 48.0447 397.222 54.9763 397.222H110.66C114.37 397.222 117.377 394.215 117.377 390.505C117.377 386.795 114.37 383.788 110.66 383.788H61.6937C58.472 383.788 55.8602 381.176 55.8602 377.954C55.8602 374.732 53.2485 372.121 50.0267 372.121H49.1428C45.4329 372.121 42.4255 375.128 42.4255 378.838V384.672Z" fill="#121212"/>
<path d="M54.9139 328.281C45.5522 328.281 37.7517 334.964 36.023 343.82C35.1746 343.654 34.2981 343.566 33.4011 343.566C27.4104 343.566 22.3257 347.444 20.5184 352.826C18.489 351.619 16.1191 350.926 13.587 350.926C6.08316 350.926 0 357.009 0 364.513C1.36323e-05 371.899 5.89446 377.909 13.2362 378.095L13.587 378.1H74.1617L74.5564 378.095C82.8158 377.885 89.447 371.124 89.447 362.815C89.447 354.373 82.6035 347.529 74.1617 347.529L74.1603 347.28C74.0271 336.765 65.4611 328.281 54.9139 328.281Z" fill="#121212"/>
<path d="M42.4255 147.831C42.4255 154.763 48.0447 160.382 54.9763 160.382H110.66C114.37 160.382 117.377 157.375 117.377 153.665C117.377 149.955 114.37 146.948 110.66 146.948H61.6937C58.472 146.948 55.8602 144.336 55.8602 141.114C55.8602 137.892 53.2485 135.281 50.0267 135.281H49.1428C45.4329 135.281 42.4255 138.288 42.4255 141.998V147.831Z" fill="#121212"/>
<path d="M54.9139 91.4409C45.5522 91.4409 37.7517 98.1244 36.023 106.98C35.1746 106.814 34.2981 106.726 33.4011 106.726C27.4104 106.726 22.3257 110.604 20.5184 115.985C18.489 114.779 16.1191 114.086 13.587 114.086C6.08316 114.086 0 120.169 0 127.673C1.36323e-05 135.059 5.89446 141.069 13.2362 141.255L13.587 141.26H74.1617L74.5564 141.255C82.8158 141.045 89.447 134.284 89.447 125.974C89.447 117.533 82.6035 110.689 74.1617 110.689L74.1603 110.44C74.0271 99.9246 65.4611 91.441 54.9139 91.4409Z" fill="#121212"/>
<path d="M42.4255 562.857C42.4255 569.789 48.0447 575.408 54.9763 575.408H110.66C114.37 575.408 117.377 572.401 117.377 568.691C117.377 564.981 114.37 561.973 110.66 561.973H61.6937C58.472 561.973 55.8602 559.362 55.8602 556.14C55.8602 552.918 53.2485 550.306 50.0267 550.306H49.1428C45.4329 550.306 42.4255 553.314 42.4255 557.024V562.857Z" fill="#121212"/>
<path d="M54.9139 506.467C45.5522 506.467 37.7517 513.15 36.023 522.006C35.1746 521.84 34.2981 521.752 33.4011 521.752C27.4104 521.752 22.3257 525.629 20.5184 531.011C18.489 529.805 16.1191 529.112 13.587 529.112C6.08316 529.112 0 535.195 0 542.698C1.36323e-05 550.085 5.89446 556.095 13.2362 556.281L13.587 556.285H74.1617L74.5564 556.28C82.8158 556.071 89.447 549.31 89.447 541C89.447 532.558 82.6035 525.715 74.1617 525.715L74.1603 525.466C74.0271 514.95 65.4611 506.467 54.9139 506.467Z" fill="#121212"/>
<path d="M196.57 267.649C196.57 274.58 190.951 280.2 184.02 280.2H128.336C124.626 280.2 121.619 277.192 121.619 273.482C121.619 269.772 124.626 266.765 128.336 266.765H177.302C180.524 266.765 183.136 264.153 183.136 260.931C183.136 257.71 185.747 255.098 188.969 255.098H189.853C193.563 255.098 196.57 258.105 196.57 261.815V267.649Z" fill="#121212"/>
<path d="M184.082 211.258C193.444 211.258 201.244 217.942 202.973 226.797C203.821 226.631 204.698 226.544 205.595 226.544C211.586 226.544 216.67 230.421 218.478 235.803C220.507 234.597 222.877 233.903 225.409 233.903C232.913 233.903 238.996 239.986 238.996 247.49C238.996 254.877 233.101 260.887 225.76 261.073L225.409 261.077H164.834L164.44 261.072C156.18 260.863 149.549 254.102 149.549 245.792C149.549 237.35 156.392 230.506 164.834 230.506L164.836 230.258C164.969 219.742 173.535 211.258 184.082 211.258Z" fill="#121212"/>
<path d="M196.575 68.8597C196.575 75.7914 190.955 81.4106 184.024 81.4106H128.34C124.63 81.4106 121.623 78.4031 121.623 74.6932C121.623 70.9833 124.63 67.9759 128.34 67.9759H177.306C180.528 67.9759 183.14 65.3641 183.14 62.1424C183.14 58.9206 185.752 56.3089 188.973 56.3089H189.857C193.567 56.3089 196.575 59.3163 196.575 63.0262V68.8597Z" fill="#121212"/>
<path d="M184.086 12.4692C193.448 12.4692 201.248 19.1527 202.977 28.0083C203.825 27.8424 204.702 27.7545 205.599 27.7545C211.59 27.7546 216.674 31.6318 218.482 37.0137C220.511 35.8075 222.881 35.1141 225.413 35.1141C232.917 35.1141 239 41.1973 239 48.7011C239 56.0877 233.106 62.0976 225.764 62.2836L225.413 62.2881H164.838L164.444 62.2829C156.184 62.0736 149.553 55.3126 149.553 47.0028C149.553 38.5609 156.396 31.7174 164.838 31.7174L164.84 31.4685C164.973 20.9529 173.539 12.4693 184.086 12.4692Z" fill="#121212"/>
</svg>
