<svg width="120" height="114" viewBox="0 0 120 114" fill="none" xmlns="http://www.w3.org/2000/svg">
<path d="M75.3976 0C63.3064 0 53.2314 8.54065 50.9986 19.857C49.9028 19.6451 48.7707 19.5328 47.6122 19.5328C39.8748 19.5328 33.3074 24.4875 30.9732 31.3648C28.3521 29.8235 25.2911 28.9374 22.0207 28.9373C12.3289 28.9373 4.47205 36.7109 4.47205 46.2998C4.47206 55.739 12.0852 63.4189 21.5677 63.6566L22.0207 63.6623H100.258L100.767 63.6557C111.435 63.3883 120 54.7486 120 44.1296C120 33.342 111.161 24.5968 100.258 24.5968L100.256 24.2787C100.084 10.841 89.0203 0.000110909 75.3976 0Z" fill="#52D377"/>
<path d="M81.9876 76.9738C81.9876 88.0195 73.0333 96.9738 61.9876 96.9738H11.94C2.64101 96.9738 0.014556 101.547 0.0145575 114V96.9738H0V82.1686H61.0808C64.3945 82.1686 67.0807 79.4823 67.0807 76.1686V63.6621H81.9876V76.9738Z" fill="#817360"/>
<path d="M0.0145575 65.1368C0.014556 77.5891 2.64101 82.1628 11.94 82.1628H0.0145575V65.1368Z" fill="#817360"/>
<path d="M8.46747 49.6573C8.32468 48.4435 9.27307 47.377 10.4952 47.377H112.984C114.311 47.377 115.317 48.5755 115.086 49.8826C114.058 55.7119 108.993 59.9614 103.073 59.9614H20.0548C14.1385 59.9614 9.15869 55.5331 8.46747 49.6573Z" fill="black" fill-opacity="0.2"/>
<path d="M35.5312 41.1622C35.5312 34.4452 40.9764 29 47.6934 29H103.369C110.086 29 115.531 34.4452 115.531 41.1622C115.531 42.7295 114.261 44 112.693 44H38.3691C36.8018 44 35.5312 42.7295 35.5312 41.1622Z" fill="black" fill-opacity="0.1"/>
<path d="M56.6445 21.4484C56.6445 12.0557 64.2588 4.44141 73.6515 4.44141H76.0663C85.5103 4.44141 93.1663 12.0973 93.1663 21.5414C93.1663 23.5447 91.5423 25.1687 89.539 25.1687H60.3648C58.3102 25.1687 56.6445 23.5031 56.6445 21.4484Z" fill="white" fill-opacity="0.2"/>
<path d="M9.6875 41.8462C9.6875 36.4083 14.0958 32 19.5337 32H21.7875C27.2551 32 31.6875 36.4324 31.6875 41.9C31.6875 43.0598 30.7473 44 29.5875 44H11.8413C10.6518 44 9.6875 43.0357 9.6875 41.8462Z" fill="white" fill-opacity="0.2"/>
<rect x="10.4336" y="90.3125" width="56.646" height="4.44156" rx="2.22078" fill="black" fill-opacity="0.2"/>
<rect x="69.3164" y="65.1426" width="4.47205" height="13.3247" rx="2.23602" fill="white" fill-opacity="0.2"/>
</svg>
