<svg width="99" height="110" viewBox="0 0 99 110" fill="none" xmlns="http://www.w3.org/2000/svg">
<ellipse cx="38.2581" cy="102.639" rx="36.9299" ry="6.6875" fill="black" fill-opacity="0.3"/>
<rect x="17.7773" y="68.2832" width="18.332" height="34.2395" rx="9.166" fill="#403A31"/>
<rect width="18.3322" height="34.2391" rx="9.16612" transform="matrix(0.9968 -0.079942 0.0796236 0.996825 37.4336 69.75)" fill="#403A31"/>
<mask id="mask0_2058_20579" style="mask-type:alpha" maskUnits="userSpaceOnUse" x="38" y="68" width="20" height="36">
<rect x="37.4336" y="69.75" width="18.3322" height="34.2391" rx="9.16612" transform="rotate(-4.57607 37.4336 69.75)" fill="#4B4338"/>
</mask>
<g mask="url(#mask0_2058_20579)">
<path d="M37.364 91.121C37.3223 90.9862 37.2945 90.8462 37.2812 90.7012L37.364 91.121C38.8764 96.0209 58.6028 94.2516 58.5678 89.1566L60.0474 100.125L55.9301 104.228L39.7509 103.239L37.364 91.121Z" fill="#353029"/>
</g>
<mask id="mask1_2058_20579" style="mask-type:alpha" maskUnits="userSpaceOnUse" x="17" y="68" width="20" height="35">
<rect x="17.7773" y="68.2832" width="18.332" height="34.2395" rx="9.166" fill="#4B4338"/>
</mask>
<g mask="url(#mask1_2058_20579)">
<path d="M16.134 90.6776C16.1048 90.5395 16.0898 90.3976 16.0898 90.252L16.134 90.6776C17.1949 95.6951 37.0001 95.7331 37.4283 90.6561L37.9049 101.714L33.4319 105.425L17.4097 102.963L16.134 90.6776Z" fill="#353029"/>
</g>
<path d="M63.8281 55.8262C63.3281 48.8262 58.4902 49.6057 56.8281 47.8301L55.835 51.7887C55.5173 55.1196 52.3363 56.2692 52.3281 60.8301C52.3249 62.6571 53.6544 65.388 58.3281 63.8301C61.3281 62.8301 64.08 59.3527 63.8281 55.8262Z" fill="#605649"/>
<path d="M58.5796 59.1743C59.3251 71.9222 61.5244 86.4336 37.1458 86.4336C12.7672 86.4336 10.1951 73.2448 11.7607 59.1743C13.3263 45.1037 22.2415 32.5762 35.1702 32.5762C48.0988 32.5762 57.8341 46.4263 58.5796 59.1743Z" fill="#4B4338"/>
<path d="M13.4978 79.3281C1.82797 68.3281 3.73702 53.3281 13.4966 47.7832L18.4669 51.8409C14.2347 56.3281 17.3239 64.8281 23.8242 69.8281C23.8242 69.8281 26.3281 74.8281 23.3281 78.8281C20.3281 82.8281 13.4978 79.3281 13.4978 79.3281Z" fill="#605649"/>
<path d="M12.9126 46.9004C13.5412 46.3576 14.4896 46.4279 15.0317 47.0572C15.0336 47.0594 15.0375 47.0636 15.0431 47.07C15.0552 47.0836 15.0757 47.1065 15.1048 47.1382C15.1631 47.2017 15.2553 47.3002 15.3816 47.4286C15.6342 47.6855 16.0223 48.0617 16.545 48.5168C17.5911 49.4273 19.1726 50.6502 21.2832 51.8647C25.4982 54.29 31.8295 56.6862 40.2573 56.4915C48.7961 56.2942 52.4688 54.1477 54.0454 52.4206C54.8369 51.5536 55.1648 50.7266 55.3034 50.149C55.3736 49.8566 55.3962 49.6232 55.4026 49.4766C55.4058 49.4035 55.4049 49.3527 55.404 49.328C55.4036 49.3157 55.4032 49.31 55.4033 49.3113C55.4033 49.312 55.4035 49.3144 55.4039 49.3187C55.4041 49.3209 55.4043 49.3235 55.4046 49.3266C55.4047 49.3281 55.4049 49.3298 55.4051 49.3316C55.4052 49.3325 55.4053 49.3339 55.4054 49.3343C55.3206 48.5082 55.9193 47.7688 56.744 47.6822C57.5697 47.5955 58.3092 48.1959 58.3958 49.0233L56.9007 49.1803C58.3842 49.0245 58.3958 49.0248 58.3961 49.0263C58.3961 49.0269 58.3963 49.0286 58.3964 49.0297C58.3966 49.032 58.3969 49.0344 58.3971 49.037C58.3976 49.0421 58.3982 49.0478 58.3987 49.054C58.3998 49.0664 58.401 49.0809 58.4021 49.0975C58.4045 49.1307 58.4069 49.1723 58.4086 49.2217C58.4121 49.3204 58.4131 49.4508 58.4062 49.6085C58.3924 49.9235 58.3471 50.3506 58.2265 50.8532C57.9836 51.8656 57.4384 53.1671 56.2637 54.4538C53.9082 57.0342 49.2764 59.2963 40.3266 59.5031C31.2656 59.7125 24.3979 57.1308 19.786 54.4771C17.4832 53.1521 15.7443 51.8102 14.5733 50.7909C13.9876 50.281 13.543 49.851 13.2401 49.5429C13.0886 49.3888 12.9723 49.2651 12.8915 49.177C12.8511 49.133 12.8195 49.0978 12.7968 49.0722C12.7854 49.0594 12.7762 49.049 12.7693 49.0411C12.7658 49.0371 12.7629 49.0337 12.7606 49.0309C12.7594 49.0296 12.7583 49.0284 12.7574 49.0274C12.757 49.0268 12.7563 49.0261 12.7561 49.0258C12.7557 49.0251 12.7652 49.0159 13.8938 48.0414L12.7551 49.0246C12.2132 48.3944 12.2837 47.4434 12.9126 46.9004ZM15.0311 47.0564C15.0313 47.0567 15.0317 47.0572 15.0317 47.0572C15.0316 47.0571 15.0315 47.0569 15.0314 47.0568L15.0311 47.0564Z" fill="#E8C92B"/>
<path d="M58.9394 21.9275C56.8998 22.1647 55.2771 23.4019 54.2208 24.4819C53.248 25.4764 53.1005 26.9436 53.5409 28.2604L53.5529 28.2963C53.8201 29.0951 54.2893 29.8306 55.0405 30.218C55.8236 30.622 56.9592 31.0088 58.1979 30.7834C60.4933 30.3659 61.9154 29.3456 63.0723 27.3781C63.4557 26.726 63.7239 25.9635 63.911 25.2353C64.3452 23.5456 63.3225 21.9326 61.5726 21.8331C60.8487 21.792 59.9742 21.8071 58.9394 21.9275Z" fill="#4B4338"/>
<path d="M52.0585 10.5686C51.4352 13.6546 48.832 15.6384 48.832 15.6384L56.5315 23.0594C56.5315 23.0594 62.1777 19.3122 60.6012 12.2585C59.3258 6.55229 52.8435 3.85141 50.4136 3.02778C50.094 2.91945 49.8294 3.27371 50.0001 3.56535C50.8733 5.05779 52.5225 8.2713 52.0585 10.5686Z" fill="#E2C093"/>
<path d="M61.9926 39.4457C61.9926 45.5477 56.4113 50.8322 48.2758 53.4005L18.839 49.8792C12.3495 46.1687 9.92969 40.7803 9.92969 34.2289C9.92969 21.6696 21.0919 11.4883 34.8612 11.4883C48.1663 11.4883 59.0371 20.9947 59.755 32.9671C61.1919 34.9405 61.9926 37.1345 61.9926 39.4457Z" fill="#4B4338"/>
<path d="M8.35775 15.5642C8.52066 21.3753 13.4029 23.9372 14.4882 24.4357C14.6306 24.5011 14.7761 24.541 14.9319 24.557C15.8518 24.652 19.291 24.8178 21.1535 22.2872C22.6639 20.2351 22.4762 18.2009 22.2253 17.16C22.1111 16.6861 21.7616 16.3244 21.366 16.0405C20.5104 15.4263 18.9958 14.0999 18.1837 11.964C17.2778 9.58103 18.3174 4.83234 18.8382 2.79232C18.9229 2.46044 18.5592 2.1953 18.2817 2.39531C15.7467 4.22195 8.20519 10.1221 8.35775 15.5642Z" fill="#E2C093"/>
<path d="M9.22612 22.7349C11.3163 22.4932 13.2271 23.3503 14.5358 24.1829C15.741 24.9497 16.235 26.3834 16.107 27.8046L16.1035 27.8434C16.0259 28.7056 15.7318 29.5518 15.0743 30.116C14.3888 30.7041 13.3477 31.358 12.0592 31.4234C9.67131 31.5446 8.01195 30.8576 6.39306 29.1603C5.85651 28.5978 5.40887 27.8976 5.05015 27.2129C4.21769 25.6238 4.85621 23.7695 6.57789 23.2589C7.29009 23.0477 8.16575 22.8575 9.22612 22.7349Z" fill="#4B4338"/>
<ellipse cx="3.88646" cy="5.43707" rx="3.88646" ry="5.43707" transform="matrix(0.995267 -0.0971797 0.0967939 0.995304 26.6523 25.7754)" fill="white"/>
<ellipse cx="3.56532" cy="5.40998" rx="3.56532" ry="5.40998" transform="matrix(0.995267 -0.0971797 0.0967939 0.995304 45.9844 25.2578)" fill="white"/>
<path d="M49.9766 26.5732C50.4234 26.5138 50.8673 26.6763 51.2648 27.003C50.5867 27.1684 50.0946 27.7934 50.1197 28.5196C50.1486 29.3509 50.8445 30.002 51.6742 29.973C52.0394 29.9602 52.3686 29.8162 52.6214 29.59C52.6416 29.6973 52.6611 29.8059 52.6758 29.9164C52.942 31.926 52.1652 33.6876 50.9406 33.8506C49.7161 34.0136 48.5078 32.5168 48.2415 30.5074C47.9752 28.4979 48.752 26.7363 49.9766 26.5732Z" fill="black"/>
<ellipse cx="43.5907" cy="40.1422" rx="9.89928" ry="7.56796" fill="#353029"/>
<ellipse cx="1.79811" cy="2.39445" rx="1.79811" ry="2.39445" transform="matrix(0.750226 -0.661181 0.659686 0.751542 36.9883 37.377)" fill="black"/>
<ellipse cx="1.79811" cy="2.39445" rx="1.79811" ry="2.39445" transform="matrix(-0.750226 -0.661181 -0.659686 0.751542 51.5742 37.377)" fill="black"/>
<path d="M47.0675 42.5645C47.4745 42.4411 47.9042 42.6717 48.0274 43.0795C48.1506 43.4873 47.9205 43.9179 47.5135 44.0413L47.1886 44.1399C45.4462 44.6682 43.5951 44.7245 41.8238 44.303L41.393 44.2005C40.9793 44.102 40.7235 43.6862 40.8218 43.2716C40.92 42.8571 41.3351 42.6008 41.7488 42.6993L42.1796 42.8018C43.6862 43.1603 45.2606 43.1125 46.7427 42.663L47.0675 42.5645Z" fill="black"/>
<path d="M31.3447 27.1348C31.7926 27.0911 32.2298 27.2689 32.6152 27.6084C31.9292 27.748 31.4132 28.3564 31.4131 29.085C31.4131 29.9168 32.0858 30.5918 32.916 30.5918C33.2847 30.5918 33.6213 30.4571 33.8828 30.2363C33.8997 30.3464 33.9148 30.458 33.9258 30.5713C34.122 32.5888 33.2849 34.3221 32.0557 34.4424C30.8262 34.5624 29.6699 33.0236 29.4736 31.0059C29.2774 28.9882 30.1153 27.2548 31.3447 27.1348Z" fill="black"/>
<rect x="20.5547" y="78.748" width="56.2426" height="3.15944" rx="1.57972" transform="rotate(-105 20.5547 78.748)" fill="#EAC64F"/>
<rect x="9.84766" y="26.2715" width="22" height="22" rx="3" transform="rotate(-105 9.84766 26.2715)" fill="#CFCFCF"/>
<rect x="5.01953" y="27.5664" width="22" height="19" rx="3" transform="rotate(-105 5.01953 27.5664)" fill="#EE3232"/>
<path d="M38.8242 63.8301C45.8242 65.8301 59.8242 64.3301 59.8242 62.8301L58.3242 50.8301C57.3242 54.8301 49.7722 54.9355 40.8242 52.8301C32.3242 50.8301 24.3242 43.3281 17.8242 39.8281L8.82422 46.8281C17.3242 55.3281 31.4763 61.7307 38.8242 63.8301Z" fill="#605649"/>
<ellipse cx="12.891" cy="41.9022" rx="6.56285" ry="6.57604" fill="#605649"/>
<circle cx="18.8281" cy="74.8262" r="7.5" fill="#605649"/>
</svg>
