<svg width="99" height="110" viewBox="0 0 99 110" fill="none" xmlns="http://www.w3.org/2000/svg">
<ellipse cx="36.9299" cy="6.6875" rx="36.9299" ry="6.6875" transform="matrix(-1 0 0 1 96.8555 95.957)" fill="black" fill-opacity="0.3"/>
<rect width="18.332" height="34.2395" rx="9.166" transform="matrix(-1 0 0 1 80.9023 68.2852)" fill="#403A31"/>
<rect width="18.3322" height="34.2391" rx="9.16612" transform="matrix(-0.9968 -0.079942 -0.0796236 0.996825 61.25 69.752)" fill="#403A31"/>
<mask id="mask0_2064_21530" style="mask-type:alpha" maskUnits="userSpaceOnUse" x="40" y="68" width="21" height="36">
<rect width="18.3322" height="34.2391" rx="9.16612" transform="matrix(-0.996812 -0.0797826 -0.0797826 0.996812 61.25 69.7539)" fill="#4B4338"/>
</mask>
<g mask="url(#mask0_2064_21530)">
<path d="M61.3196 91.1249C61.3613 90.9901 61.3891 90.8501 61.4023 90.7051L61.3196 91.1249C59.8072 96.0248 40.0808 94.2555 40.1158 89.1605L38.6362 100.129L42.7535 104.232L58.9327 103.243L61.3196 91.1249Z" fill="#353029"/>
</g>
<mask id="mask1_2064_21530" style="mask-type:alpha" maskUnits="userSpaceOnUse" x="62" y="68" width="19" height="35">
<rect width="18.332" height="34.2395" rx="9.166" transform="matrix(-1 0 0 1 80.9023 68.2852)" fill="#4B4338"/>
</mask>
<g mask="url(#mask1_2064_21530)">
<path d="M82.5456 90.6796C82.5748 90.5415 82.5898 90.3996 82.5898 90.2539L82.5456 90.6796C81.4848 95.697 61.6796 95.735 61.2514 90.658L60.7748 101.716L65.2478 105.427L81.2699 102.965L82.5456 90.6796Z" fill="#353029"/>
</g>
<path d="M34.8555 55.8281C35.3555 48.8281 40.1934 49.6077 41.8555 47.832L42.8486 51.7907C43.1663 55.1215 46.3473 56.2711 46.3555 60.832C46.3587 62.659 45.0292 65.3899 40.3555 63.832C37.3555 62.832 34.6036 59.3547 34.8555 55.8281Z" fill="#605649"/>
<path d="M40.1001 59.1762C39.3546 71.9242 37.1553 86.4356 61.5339 86.4356C85.9125 86.4356 88.4846 73.2467 86.919 59.1762C85.3534 45.1057 76.4382 32.5781 63.5095 32.5781C50.5808 32.5781 40.8456 46.4282 40.1001 59.1762Z" fill="#4B4338"/>
<path d="M85.1858 79.3301C96.8556 68.3301 94.9466 53.3301 85.187 47.7852L80.2167 51.8429C84.4489 56.3301 81.3597 64.8301 74.8594 69.8301C74.8594 69.8301 72.3555 74.8301 75.3555 78.8301C78.3555 82.8301 85.1858 79.3301 85.1858 79.3301Z" fill="#605649"/>
<path d="M85.7671 46.9023C85.1385 46.3596 84.19 46.4299 83.648 47.0592C83.6461 47.0613 83.6422 47.0656 83.6366 47.0719C83.6245 47.0855 83.604 47.1085 83.5749 47.1402C83.5166 47.2037 83.4243 47.3022 83.2981 47.4306C83.0455 47.6874 82.6574 48.0637 82.1346 48.5187C81.0886 49.4293 79.5071 50.6522 77.3965 51.8666C73.1815 54.2919 66.8501 56.6882 58.4224 56.4934C49.8835 56.2961 46.2109 54.1497 44.6343 52.4226C43.8428 51.5556 43.5149 50.7286 43.3763 50.151C43.3061 49.8585 43.2835 49.6252 43.2771 49.4786C43.2739 49.4054 43.2748 49.3547 43.2757 49.3299C43.2761 49.3177 43.2765 49.312 43.2764 49.3132C43.2763 49.3139 43.2762 49.3164 43.2758 49.3207C43.2756 49.3228 43.2754 49.3254 43.2751 49.3285C43.275 49.3301 43.2748 49.3318 43.2746 49.3335C43.2745 49.3344 43.2744 49.3358 43.2743 49.3363C43.3591 48.5101 42.7604 47.7708 41.9357 47.6841C41.11 47.5974 40.3704 48.1979 40.2839 49.0252L41.779 49.1822C40.2955 49.0264 40.2839 49.0267 40.2836 49.0283C40.2836 49.0289 40.2834 49.0305 40.2833 49.0317C40.283 49.034 40.2828 49.0364 40.2826 49.0389C40.2821 49.044 40.2815 49.0497 40.281 49.0559C40.2799 49.0683 40.2787 49.0829 40.2775 49.0995C40.2752 49.1327 40.2728 49.1742 40.2711 49.2236C40.2676 49.3223 40.2666 49.4527 40.2735 49.6104C40.2873 49.9255 40.3326 50.3525 40.4532 50.8551C40.6961 51.8676 41.2413 53.169 42.4159 54.4558C44.7715 57.0362 49.4033 59.2983 58.3531 59.5051C67.4141 59.7144 74.2818 57.1327 78.8937 54.479C81.1965 53.154 82.9353 51.8122 84.1063 50.7929C84.6921 50.283 85.1367 49.853 85.4396 49.5449C85.5911 49.3908 85.7073 49.2671 85.7882 49.179C85.8286 49.1349 85.8602 49.0998 85.8829 49.0741C85.8943 49.0614 85.9034 49.051 85.9104 49.043C85.9139 49.039 85.9168 49.0356 85.9191 49.0329C85.9203 49.0315 85.9214 49.0304 85.9223 49.0293C85.9227 49.0288 85.9233 49.0281 85.9236 49.0278C85.924 49.0271 85.9145 49.0179 84.7858 48.0433L85.9246 49.0266C86.4665 48.3964 86.396 47.4454 85.7671 46.9023ZM83.6485 47.0584C83.6484 47.0586 83.648 47.0592 83.648 47.0592C83.6481 47.059 83.6481 47.0589 83.6483 47.0587L83.6485 47.0584Z" fill="#E8C92B"/>
<path d="M39.7402 21.9314C41.7799 22.1686 43.4026 23.4059 44.4589 24.4858C45.4317 25.4803 45.5792 26.9475 45.1388 28.2643L45.1268 28.3002C44.8596 29.099 44.3904 29.8345 43.6392 30.222C42.8561 30.6259 41.7205 31.0127 40.4818 30.7873C38.1864 30.3698 36.7643 29.3495 35.6074 27.382C35.2239 26.7299 34.9558 25.9674 34.7687 25.2392C34.3345 23.5495 35.3571 21.9365 37.1071 21.837C37.831 21.7959 38.7055 21.811 39.7402 21.9314Z" fill="#4B4338"/>
<path d="M46.6212 10.5725C47.2445 13.6585 49.8477 15.6423 49.8477 15.6423L42.1482 23.0633C42.1482 23.0633 36.502 19.3161 38.0785 12.2625C39.3539 6.55619 45.8362 3.85531 48.2661 3.03168C48.5857 2.92336 48.8502 3.27762 48.6796 3.56925C47.8064 5.0617 46.1572 8.2752 46.6212 10.5725Z" fill="#E2C093"/>
<path d="M36.6871 39.4496C36.6871 45.5516 42.2684 50.8361 50.4039 53.4044L79.8406 49.8831C86.3302 46.1726 88.75 40.7842 88.75 34.2328C88.75 21.6735 77.5878 11.4922 63.8185 11.4922C50.5134 11.4922 39.6426 20.9986 38.9247 32.971C37.4878 34.9444 36.6871 37.1384 36.6871 39.4496Z" fill="#4B4338"/>
<path d="M90.3219 15.5682C90.159 21.3793 85.2768 23.9411 84.1915 24.4396C84.0491 24.505 83.9035 24.5449 83.7478 24.561C82.8279 24.6559 79.3887 24.8217 77.5262 22.2912C76.0158 20.239 76.2035 18.2048 76.4544 17.1639C76.5686 16.69 76.9181 16.3283 77.3137 16.0444C78.1693 15.4302 79.6839 14.1038 80.496 11.9679C81.4019 9.58494 80.3623 4.83624 79.8415 2.79623C79.7568 2.46435 80.1205 2.19921 80.398 2.39921C82.9329 4.22586 90.4745 10.126 90.3219 15.5682Z" fill="#E2C093"/>
<path d="M89.4536 22.7388C87.3634 22.4971 85.4526 23.3542 84.1439 24.1868C82.9387 24.9536 82.4447 26.3873 82.5727 27.8086L82.5762 27.8473C82.6538 28.7095 82.9479 29.5557 83.6054 30.1199C84.2909 30.708 85.3319 31.3619 86.6205 31.4273C89.0084 31.5485 90.6677 30.8615 92.2866 29.1642C92.8232 28.6017 93.2708 27.9015 93.6295 27.2168C94.462 25.6277 93.8235 23.7734 92.1018 23.2628C91.3896 23.0516 90.5139 22.8614 89.4536 22.7388Z" fill="#4B4338"/>
<ellipse cx="3.88646" cy="5.43707" rx="3.88646" ry="5.43707" transform="matrix(-0.995267 -0.0971797 -0.0967939 0.995304 72.0273 25.7793)" fill="white"/>
<ellipse cx="3.56532" cy="5.40998" rx="3.56532" ry="5.40998" transform="matrix(-0.995267 -0.0971797 -0.0967939 0.995304 52.6953 25.2617)" fill="white"/>
<path fill-rule="evenodd" clip-rule="evenodd" d="M48.6207 26.5682C49.069 26.616 49.4618 26.8787 49.7709 27.2902C49.0731 27.2911 48.4478 27.782 48.3008 28.4935C48.1324 29.3081 48.6549 30.1042 49.468 30.272C49.8257 30.3458 50.1795 30.2854 50.4785 30.1256C50.4728 30.2342 50.4653 30.3441 50.4534 30.4545C50.2373 32.4699 49.0665 33.9973 47.838 33.8663C46.6097 33.7351 45.7892 31.9954 46.0053 29.98C46.2215 27.9646 47.3923 26.4374 48.6207 26.5682Z" fill="black"/>
<ellipse cx="9.89928" cy="7.56796" rx="9.89928" ry="7.56796" transform="matrix(-1 0 0 1 64.9883 32.5781)" fill="#353029"/>
<ellipse cx="1.79811" cy="2.39445" rx="1.79811" ry="2.39445" transform="matrix(-0.750226 -0.661181 -0.659686 0.751542 61.6914 37.3809)" fill="black"/>
<ellipse cx="1.79811" cy="2.39445" rx="1.79811" ry="2.39445" transform="matrix(0.750226 -0.661181 0.659686 0.751542 47.1055 37.3809)" fill="black"/>
<path d="M51.6122 42.5684C51.2052 42.445 50.7755 42.6756 50.6523 43.0834C50.5291 43.4912 50.7592 43.9218 51.1662 44.0453L51.491 44.1438C53.2335 44.6722 55.0846 44.7285 56.8559 44.3069L57.2867 44.2044C57.7004 44.1059 57.9561 43.6901 57.8579 43.2756C57.7596 42.861 57.3446 42.6047 56.9309 42.7032L56.5 42.8057C54.9935 43.1642 53.4191 43.1164 51.937 42.6669L51.6122 42.5684Z" fill="black"/>
<path fill-rule="evenodd" clip-rule="evenodd" d="M67.261 27.1309C67.7099 27.1646 68.1096 27.4154 68.4313 27.8163C67.7327 27.8375 67.1217 28.3476 66.9969 29.0644C66.8543 29.884 67.4015 30.6633 68.2194 30.8057C68.5817 30.8687 68.9354 30.7954 69.2304 30.6237C69.2282 30.7343 69.2232 30.8463 69.2147 30.959C69.062 32.9802 67.9405 34.5435 66.7088 34.4512C65.477 34.3588 64.6015 32.6453 64.754 30.6239C64.9065 28.6025 66.0292 27.0385 67.261 27.1309Z" fill="black"/>
<rect width="56.2426" height="3.15944" rx="1.57972" transform="matrix(0.258819 -0.965926 -0.965926 -0.258819 78.1289 78.748)" fill="#EAC64F"/>
<rect width="22" height="22" rx="3" transform="matrix(0.258819 -0.965926 -0.965926 -0.258819 88.8359 26.2715)" fill="#CFCFCF"/>
<rect width="22" height="19" rx="3" transform="matrix(0.258819 -0.965926 -0.965926 -0.258819 93.6641 27.5664)" fill="#EE3232"/>
<path d="M59.8555 63.832C52.8555 65.832 38.8555 64.332 38.8555 62.832L40.3555 50.832C41.3555 54.832 48.9074 54.9374 57.8555 52.832C66.3555 50.832 74.3555 43.3301 80.8555 39.8301L89.8555 46.8301C81.3555 55.3301 67.2034 61.7326 59.8555 63.832Z" fill="#605649"/>
<ellipse cx="6.56285" cy="6.57604" rx="6.56285" ry="6.57604" transform="matrix(-1 0 0 1 92.3555 35.3301)" fill="#605649"/>
<circle cx="7.5" cy="7.5" r="7.5" transform="matrix(-1 0 0 1 87.3555 67.3281)" fill="#605649"/>
</svg>
