<svg width="97" height="107" viewBox="0 0 97 107" fill="none" xmlns="http://www.w3.org/2000/svg">
<ellipse cx="36.9299" cy="100.312" rx="36.9299" ry="6.6875" fill="black" fill-opacity="0.3"/>
<rect x="16.043" y="65.957" width="18.332" height="34.2395" rx="9.166" fill="#403A31"/>
<rect width="18.3322" height="34.2391" rx="9.16612" transform="matrix(0.9968 -0.079942 0.0796236 0.996825 35.6953 67.4238)" fill="#403A31"/>
<mask id="mask0_2058_20494" style="mask-type:alpha" maskUnits="userSpaceOnUse" x="36" y="66" width="20" height="35">
<rect x="35.6953" y="67.4238" width="18.3322" height="34.2391" rx="9.16612" transform="rotate(-4.57607 35.6953 67.4238)" fill="#4B4338"/>
</mask>
<g mask="url(#mask0_2058_20494)">
<path d="M35.6257 88.7949C35.584 88.66 35.5562 88.5201 35.543 88.375L35.6257 88.7949C37.1381 93.6947 56.8645 91.9254 56.8295 86.8304L58.3091 97.799L54.1919 101.902L38.0126 100.913L35.6257 88.7949Z" fill="#353029"/>
</g>
<mask id="mask1_2058_20494" style="mask-type:alpha" maskUnits="userSpaceOnUse" x="16" y="65" width="19" height="36">
<rect x="16.043" y="65.957" width="18.332" height="34.2395" rx="9.166" fill="#4B4338"/>
</mask>
<g mask="url(#mask1_2058_20494)">
<path d="M14.3997 88.3514C14.3705 88.2133 14.3555 88.0714 14.3555 87.9258L14.3997 88.3514C15.4605 93.3689 35.2657 93.4069 35.6939 88.3299L36.1705 99.3879L31.6975 103.098L15.6754 100.637L14.3997 88.3514Z" fill="#353029"/>
</g>
<path d="M65.2799 59.8941C61.9477 54.8118 57.5927 50.428 55.9306 48.6523L54.0974 49.4606C53.7796 52.7915 50.0349 55.3974 50.7975 59.8941C51.7508 65.5149 62.42 71.7719 66.8564 69.6296C69.8994 68.1601 68.0258 64.0822 65.2799 59.8941Z" fill="#605649"/>
<path d="M56.8452 56.8461C57.5908 69.5941 59.7901 84.1055 35.4114 84.1055C11.0328 84.1055 8.46075 70.9167 10.0263 56.8461C11.5919 42.7756 20.5071 30.248 33.4358 30.248C46.3645 30.248 56.0997 44.0982 56.8452 56.8461Z" fill="#4B4338"/>
<rect x="21.5391" y="66.7656" width="56.2426" height="3.15944" rx="1.57972" fill="#EAC64F"/>
<ellipse cx="65.723" cy="68.3456" rx="6.56285" ry="6.57604" fill="#605649"/>
<path d="M29.615 74.2568C-2.91312 70.3184 2.37571 55.9971 11.7604 45.4551L16.7309 49.5128C10.0185 61.7654 31.3116 62.0439 38.1645 62.2826C38.1645 62.2826 45.1485 62.2826 44.0893 69.4432C43.0301 76.6039 29.615 74.2568 29.615 74.2568Z" fill="#605649"/>
<path d="M11.1743 44.5722C11.8029 44.0295 12.7514 44.0998 13.2934 44.7291C13.2953 44.7313 13.2992 44.7355 13.3048 44.7419C13.3169 44.7554 13.3375 44.7784 13.3666 44.8101C13.4248 44.8736 13.5171 44.9721 13.6433 45.1005C13.8959 45.3574 14.284 45.7336 14.8068 46.1886C15.8528 47.0992 17.4343 48.3221 19.5449 49.5366C23.7599 51.9619 30.0913 54.3581 38.519 54.1634C47.0579 53.9661 50.7305 51.8196 52.3072 50.0925C53.0986 49.2255 53.4265 48.3985 53.5651 47.8209C53.6353 47.5285 53.6579 47.2951 53.6643 47.1485C53.6675 47.0753 53.6666 47.0246 53.6657 46.9999C53.6653 46.9876 53.6649 46.9819 53.665 46.9832C53.6651 46.9838 53.6652 46.9863 53.6656 46.9906C53.6658 46.9928 53.666 46.9954 53.6663 46.9984C53.6664 47 53.6666 47.0017 53.6668 47.0035C53.6669 47.0043 53.667 47.0057 53.6671 47.0062C53.5823 46.18 54.181 45.4407 55.0058 45.3541C55.8314 45.2674 56.571 45.8678 56.6575 46.6951L55.1624 46.8521C56.6459 46.6963 56.6575 46.6967 56.6578 46.6982C56.6578 46.6988 56.658 46.7005 56.6581 46.7016C56.6584 46.7039 56.6586 46.7063 56.6589 46.7088C56.6593 46.714 56.6599 46.7196 56.6604 46.7258C56.6615 46.7382 56.6627 46.7528 56.6639 46.7694C56.6662 46.8026 56.6686 46.8442 56.6703 46.8935C56.6738 46.9922 56.6748 47.1227 56.6679 47.2804C56.6541 47.5954 56.6088 48.0225 56.4882 48.5251C56.2453 49.5375 55.7001 50.839 54.5255 52.1257C52.1699 54.7061 47.5381 56.9682 38.5883 57.175C29.5273 57.3844 22.6596 54.8026 18.0477 52.149C15.7449 50.8239 14.0061 49.4821 12.8351 48.4628C12.2493 47.9529 11.8047 47.5229 11.5018 47.2148C11.3503 47.0607 11.2341 46.937 11.1533 46.8489C11.1128 46.8049 11.0812 46.7697 11.0585 46.7441C11.0471 46.7313 11.038 46.7209 11.031 46.7129C11.0275 46.709 11.0246 46.7055 11.0223 46.7028C11.0211 46.7015 11.02 46.7003 11.0191 46.6992C11.0187 46.6987 11.0181 46.698 11.0178 46.6977C11.0174 46.697 11.0269 46.6878 12.1556 45.7133L11.0168 46.6965C10.4749 46.0663 10.5454 45.1153 11.1743 44.5722ZM13.2929 44.7283C13.2931 44.7285 13.2934 44.7291 13.2934 44.7291C13.2933 44.729 13.2933 44.7288 13.2932 44.7287L13.2929 44.7283Z" fill="#E8C92B"/>
<path d="M57.2051 19.6013C55.1654 19.8385 53.5427 21.0758 52.4864 22.1557C51.5136 23.1502 51.3661 24.6174 51.8065 25.9342L51.8185 25.9701C52.0857 26.769 52.5549 27.5044 53.3062 27.8919C54.0892 28.2958 55.2248 28.6826 56.4635 28.4573C58.7589 28.0397 60.181 27.0195 61.3379 25.0519C61.7214 24.3998 61.9895 23.6373 62.1766 22.9092C62.6108 21.2194 61.5882 19.6064 59.8382 19.5069C59.1143 19.4658 58.2398 19.4809 57.2051 19.6013Z" fill="#4B4338"/>
<path d="M50.3241 8.24244C49.7008 11.3284 47.0977 13.3122 47.0977 13.3122L54.7971 20.7333C54.7971 20.7333 60.4433 16.986 58.8668 9.93238C57.5914 4.22612 51.1091 1.52523 48.6792 0.701607C48.3596 0.59328 48.0951 0.947539 48.2657 1.23918C49.1389 2.73162 50.7881 5.94512 50.3241 8.24244Z" fill="#E2C093"/>
<path d="M60.2582 37.1195C60.2582 43.2215 54.6769 48.506 46.5414 51.0744L17.1047 47.553C10.6151 43.8425 8.19531 38.4541 8.19531 31.9027C8.19531 19.3434 19.3575 9.16211 33.1268 9.16211C46.4319 9.16211 57.3027 18.6685 58.0206 30.6409C59.4575 32.6144 60.2582 34.8083 60.2582 37.1195Z" fill="#4B4338"/>
<path d="M6.62338 13.2381C6.78628 19.0492 11.6685 21.611 12.7538 22.1095C12.8962 22.1749 13.0418 22.2148 13.1975 22.2309C14.1174 22.3258 17.5566 22.4917 19.4191 19.9611C20.9295 17.9089 20.7418 15.8747 20.4909 14.8339C20.3767 14.3599 20.0272 13.9982 19.6316 13.7143C18.776 13.1001 17.2614 11.7737 16.4493 9.63778C15.5434 7.25486 16.5831 2.50616 17.1038 0.466152C17.1885 0.134269 16.8249 -0.130872 16.5473 0.0691355C14.0124 1.89578 6.47081 7.79593 6.62338 13.2381Z" fill="#E2C093"/>
<path d="M7.49174 20.4087C9.58192 20.167 11.4927 21.0241 12.8014 21.8568C14.0066 22.6236 14.5006 24.0573 14.3726 25.4785L14.3692 25.5172C14.2915 26.3794 13.9975 27.2256 13.3399 27.7898C12.6544 28.378 11.6134 29.0318 10.3248 29.0972C7.93694 29.2184 6.27757 28.5314 4.65868 26.8341C4.12213 26.2716 3.6745 25.5715 3.31578 24.8867C2.48331 23.2977 3.12183 21.4433 4.84352 20.9327C5.55571 20.7215 6.43138 20.5313 7.49174 20.4087Z" fill="#4B4338"/>
<ellipse cx="3.88646" cy="5.43707" rx="3.88646" ry="5.43707" transform="matrix(0.995267 -0.0971797 0.0967939 0.995304 24.918 23.4492)" fill="white"/>
<ellipse cx="3.56532" cy="5.40998" rx="3.56532" ry="5.40998" transform="matrix(0.995267 -0.0971797 0.0967939 0.995304 44.25 22.9316)" fill="white"/>
<path d="M48.2422 24.2461C48.6891 24.1866 49.1329 24.3501 49.5305 24.6769C48.8525 24.8425 48.3601 25.4672 48.3853 26.1934C48.4144 27.0246 49.1111 27.6749 49.9407 27.6458C50.3058 27.6329 50.6352 27.4899 50.888 27.2638C50.9081 27.3709 50.9277 27.4798 50.9424 27.5902C51.2084 29.5993 50.4314 31.36 49.2072 31.5234C47.9826 31.6865 46.7733 30.1898 46.5071 28.1803C46.2409 26.1709 47.0177 24.4093 48.2422 24.2461Z" fill="black"/>
<ellipse cx="41.8563" cy="37.816" rx="9.89928" ry="7.56796" fill="#353029"/>
<ellipse cx="1.79811" cy="2.39445" rx="1.79811" ry="2.39445" transform="matrix(0.750226 -0.661181 0.659686 0.751542 35.2539 35.0508)" fill="black"/>
<ellipse cx="1.79811" cy="2.39445" rx="1.79811" ry="2.39445" transform="matrix(-0.750226 -0.661181 -0.659686 0.751542 49.8398 35.0508)" fill="black"/>
<path d="M45.3331 40.2383C45.7401 40.1149 46.1699 40.3455 46.293 40.7533C46.4162 41.1611 46.1861 41.5918 45.7791 41.7152L45.4543 41.8137C43.7118 42.3421 41.8607 42.3984 40.0894 41.9769L39.6586 41.8743C39.2449 41.7759 38.9892 41.36 39.0874 40.9455C39.1857 40.5309 39.6007 40.2747 40.0144 40.3731L40.4453 40.4756C41.9518 40.8341 43.5262 40.7863 45.0083 40.3369L45.3331 40.2383Z" fill="black"/>
<path d="M29.6104 24.8096C30.0581 24.7658 30.4954 24.9429 30.8809 25.2822C30.195 25.4219 29.6789 26.0304 29.6787 26.7588C29.6787 27.5906 30.3516 28.2654 31.1816 28.2656C31.5504 28.2656 31.8879 28.1319 32.1494 27.9111C32.1663 28.0209 32.1814 28.1322 32.1924 28.2451C32.3886 30.2628 31.5507 31.9961 30.3213 32.1162C29.0919 32.2363 27.9365 30.6974 27.7402 28.6797C27.5441 26.6622 28.3811 24.9299 29.6104 24.8096Z" fill="black"/>
<rect x="75" y="65.002" width="21.9984" height="6.68626" rx="3.34313" fill="#EE3232"/>
</svg>
