<svg width="98" height="107" viewBox="0 0 98 107" fill="none" xmlns="http://www.w3.org/2000/svg">
<ellipse cx="37.0042" cy="6.6875" rx="37.0042" ry="6.6875" transform="matrix(-1 0 0 1 97.1953 93.625)" fill="black" fill-opacity="0.3"/>
<rect width="18.3688" height="34.2395" rx="9.18442" transform="matrix(-1 0 0 1 81.1211 65.957)" fill="#403A31"/>
<rect width="18.3688" height="34.2395" rx="9.18442" transform="matrix(-0.996812 -0.0797826 -0.0797826 0.996812 61.4258 67.4238)" fill="#403A31"/>
<mask id="mask0_2058_20496" style="mask-type:alpha" maskUnits="userSpaceOnUse" x="41" y="66" width="20" height="35">
<rect width="18.3688" height="34.2395" rx="9.18442" transform="matrix(-0.996812 -0.0797826 -0.0797826 0.996812 61.4258 67.4238)" fill="#4B4338"/>
</mask>
<g mask="url(#mask0_2058_20496)">
<path d="M61.4953 88.7968C61.537 88.6619 61.5649 88.522 61.5781 88.377L61.4953 88.7968C59.9798 93.6967 40.2138 91.9273 40.2488 86.8324L38.7663 97.801L42.8918 101.904L59.1036 100.915L61.4953 88.7968Z" fill="#353029"/>
</g>
<mask id="mask1_2058_20496" style="mask-type:alpha" maskUnits="userSpaceOnUse" x="62" y="65" width="20" height="36">
<rect width="18.3688" height="34.2395" rx="9.18442" transform="matrix(-1 0 0 1 81.1211 65.957)" fill="#4B4338"/>
</mask>
<g mask="url(#mask1_2058_20496)">
<path d="M82.7643 88.3514C82.7936 88.2133 82.8086 88.0714 82.8086 87.9258L82.7643 88.3514C81.7013 93.3689 61.8563 93.4069 61.4273 88.3299L60.9497 99.3879L65.4317 103.098L81.486 100.637L82.7643 88.3514Z" fill="#353029"/>
</g>
<path d="M31.7846 59.8941C35.1235 54.8118 39.4872 50.428 41.1526 48.6523L42.9895 49.4606C43.3079 52.7915 47.0602 55.3974 46.296 59.8941C45.3408 65.5149 34.6502 71.7719 30.2049 69.6296C27.1557 68.1601 29.0331 64.0822 31.7846 59.8941Z" fill="#605649"/>
<path d="M40.2357 56.8461C39.4887 69.5941 37.285 84.1055 61.7126 84.1055C86.1402 84.1055 88.7174 70.9167 87.1487 56.8461C85.58 42.7756 76.6469 30.248 63.6922 30.248C50.7375 30.248 40.9827 44.0982 40.2357 56.8461Z" fill="#4B4338"/>
<rect width="56.3556" height="3.15944" rx="1.57972" transform="matrix(-1 0 0 1 75.6094 66.7656)" fill="#EAC64F"/>
<circle cx="6.57604" cy="6.57604" r="6.57604" transform="matrix(-1 0 0 1 37.918 61.7695)" fill="#605649"/>
<path d="M67.5183 74.2568C100.112 70.3184 94.8124 55.9971 85.4088 45.4551L80.4284 49.5128C87.1542 61.7654 65.8183 62.0439 58.9516 62.2826C58.9516 62.2826 51.9536 62.2826 53.0149 69.4432C54.0763 76.6039 67.5183 74.2568 67.5183 74.2568Z" fill="#605649"/>
<path d="M85.9965 44.5722C85.3667 44.0295 84.4163 44.0998 83.8731 44.7291C83.8712 44.7313 83.8674 44.7355 83.8617 44.7419C83.8497 44.7554 83.829 44.7784 83.7999 44.8101C83.7415 44.8736 83.6491 44.9721 83.5225 45.1005C83.2694 45.3574 82.8806 45.7336 82.3568 46.1886C81.3086 47.0992 79.7239 48.3221 77.6091 49.5366C73.3856 51.9619 67.0415 54.3581 58.5969 54.1634C50.0408 53.9661 46.3608 51.8196 44.781 50.0925C43.9879 49.2255 43.6594 48.3985 43.5205 47.8209C43.4502 47.5285 43.4276 47.2951 43.4211 47.1485C43.4179 47.0753 43.4188 47.0246 43.4197 46.9999C43.4201 46.9876 43.4205 46.9819 43.4204 46.9832C43.4204 46.9838 43.4202 46.9863 43.4198 46.9906C43.4197 46.9928 43.4194 46.9954 43.4191 46.9984C43.419 47 43.4188 47.0017 43.4186 47.0035C43.4185 47.0043 43.4184 47.0057 43.4183 47.0062C43.5033 46.18 42.9033 45.4407 42.077 45.3541C41.2496 45.2674 40.5086 45.8678 40.4219 46.6951L41.92 46.8521C40.4335 46.6963 40.4219 46.6967 40.4216 46.6982C40.4216 46.6988 40.4214 46.7005 40.4213 46.7016C40.421 46.7039 40.4208 46.7063 40.4206 46.7088C40.4201 46.714 40.4195 46.7196 40.419 46.7258C40.4179 46.7382 40.4167 46.7528 40.4155 46.7694C40.4132 46.8026 40.4108 46.8442 40.4091 46.8935C40.4056 46.9922 40.4046 47.1227 40.4115 47.2804C40.4253 47.5954 40.4707 48.0225 40.5915 48.5251C40.835 49.5375 41.3812 50.839 42.5582 52.1257C44.9185 54.7061 49.5596 56.9682 58.5274 57.175C67.6066 57.3844 74.4881 54.8026 79.1093 52.149C81.4167 50.8239 83.1591 49.4821 84.3324 48.4628C84.9193 47.9529 85.3648 47.5229 85.6684 47.2148C85.8202 47.0607 85.9366 46.937 86.0176 46.8489C86.0581 46.8049 86.0898 46.7697 86.1125 46.7441C86.1239 46.7313 86.1331 46.7209 86.1401 46.7129C86.1436 46.709 86.1465 46.7055 86.1489 46.7028C86.15 46.7015 86.1511 46.7003 86.152 46.6992C86.1525 46.6987 86.1531 46.698 86.1533 46.6977C86.1538 46.697 86.1442 46.6878 85.0133 45.7133L86.1543 46.6965C86.6973 46.0663 86.6267 45.1153 85.9965 44.5722ZM83.8737 44.7283C83.8735 44.7285 83.8731 44.7291 83.8731 44.7291C83.8732 44.729 83.8733 44.7288 83.8734 44.7287L83.8737 44.7283Z" fill="#E8C92B"/>
<path d="M39.8735 19.6013C41.9172 19.8385 43.5432 21.0758 44.6016 22.1557C45.5763 23.1502 45.7242 24.6174 45.2829 25.9342L45.2708 25.9701C45.0031 26.769 44.5329 27.5044 43.7802 27.8919C42.9956 28.2958 41.8577 28.6826 40.6165 28.4573C38.3165 28.0397 36.8915 27.0195 35.7323 25.0519C35.3481 24.3998 35.0794 23.6373 34.8919 22.9092C34.4569 21.2194 35.4815 19.6064 37.235 19.5069C37.9604 19.4658 38.8366 19.4809 39.8735 19.6013Z" fill="#4B4338"/>
<path d="M46.771 8.24244C47.3955 11.3284 50.0039 13.3122 50.0039 13.3122L42.289 20.7333C42.289 20.7333 36.6314 16.986 38.2111 9.93238C39.4891 4.22612 45.9844 1.52523 48.4192 0.701607C48.7394 0.59328 49.0045 0.947539 48.8335 1.23918C47.9585 2.73162 46.3061 5.94512 46.771 8.24244Z" fill="#E2C093"/>
<path d="M36.813 37.1195C36.813 43.2215 42.4055 48.506 50.5573 51.0744L80.0532 47.553C86.5558 43.8425 88.9805 38.4541 88.9805 31.9027C88.9805 19.3434 77.7958 9.16211 63.9988 9.16211C50.667 9.16211 39.7743 18.6685 39.055 30.6409C37.6153 32.6144 36.813 34.8083 36.813 37.1195Z" fill="#4B4338"/>
<path d="M90.5563 13.2381C90.3931 19.0492 85.5011 21.611 84.4135 22.1095C84.2709 22.1749 84.125 22.2148 83.9689 22.2309C83.0472 22.3258 79.6011 22.4917 77.7348 19.9611C76.2214 17.9089 76.4095 15.8747 76.6609 14.8339C76.7753 14.3599 77.1256 13.9982 77.5219 13.7143C78.3792 13.1001 79.8969 11.7737 80.7106 9.63778C81.6184 7.25486 80.5766 2.50616 80.0548 0.466152C79.9699 0.134269 80.3343 -0.130872 80.6124 0.0691355C83.1525 1.89578 90.7092 7.79593 90.5563 13.2381Z" fill="#E2C093"/>
<path d="M89.6866 20.4087C87.5923 20.167 85.6777 21.0241 84.3663 21.8568C83.1587 22.6236 82.6637 24.0573 82.7919 25.4785L82.7954 25.5172C82.8732 26.3794 83.1679 27.2256 83.8267 27.7898C84.5136 28.378 85.5567 29.0318 86.8479 29.0972C89.2405 29.2184 90.9032 28.5314 92.5254 26.8341C93.063 26.2716 93.5116 25.5715 93.871 24.8867C94.7051 23.2977 94.0653 21.4433 92.3402 20.9327C91.6266 20.7215 90.7491 20.5313 89.6866 20.4087Z" fill="#4B4338"/>
<ellipse cx="3.89419" cy="5.43718" rx="3.89419" ry="5.43718" transform="matrix(-0.995286 -0.0969866 -0.0969866 0.995286 72.2266 23.4492)" fill="white"/>
<ellipse cx="3.57242" cy="5.41008" rx="3.57242" ry="5.41008" transform="matrix(-0.995286 -0.0969866 -0.0969866 0.995286 52.8555 22.9316)" fill="white"/>
<path d="M48.7369 24.2315C49.1863 24.2759 49.5814 24.5367 49.8945 24.9459C49.1955 24.952 48.5734 25.4476 48.4321 26.1602C48.2705 26.976 48.8004 27.7684 49.6162 27.9302C49.9753 28.0014 50.3293 27.9376 50.6276 27.7754C50.6228 27.8843 50.6169 27.9947 50.6059 28.1056C50.4062 30.1229 49.2455 31.6589 48.0138 31.537C46.7822 31.415 45.946 29.6813 46.1456 27.6641C46.3453 25.6467 47.5052 24.1096 48.7369 24.2315Z" fill="black"/>
<ellipse cx="9.91917" cy="7.56796" rx="9.91917" ry="7.56796" transform="matrix(-1 0 0 1 65.1758 30.248)" fill="#353029"/>
<ellipse cx="1.80015" cy="2.39655" rx="1.80015" ry="2.39655" transform="matrix(-0.750884 -0.660434 -0.660434 0.750884 61.8711 35.0508)" fill="black"/>
<ellipse cx="50.1884" cy="35.6614" rx="1.80015" ry="2.39655" transform="rotate(-41.333 50.1884 35.6614)" fill="black"/>
<path d="M51.7715 40.2383C51.3637 40.1149 50.933 40.3455 50.8096 40.7533C50.6862 41.1611 50.9168 41.5918 51.3246 41.7152L51.6501 41.8137C53.3961 42.3421 55.2509 42.3984 57.0257 41.9769L57.4574 41.8743C57.8719 41.7759 58.1282 41.36 58.0297 40.9455C57.9313 40.5309 57.5154 40.2747 57.1009 40.3731L56.6692 40.4756C55.1596 40.8341 53.582 40.7863 52.097 40.3369L51.7715 40.2383Z" fill="black"/>
<path d="M67.5546 24.8127C68.003 24.86 68.3969 25.1214 68.7072 25.5315C68.0057 25.5301 67.3766 26.0223 67.2301 26.736C67.0631 27.5509 67.5887 28.3477 68.4037 28.5147C68.7654 28.5888 69.123 28.5255 69.4239 28.362C69.4184 28.4729 69.4108 28.5849 69.3989 28.6978C69.1863 30.7139 68.0156 32.2433 66.7847 32.1135C65.554 31.9834 64.729 30.2436 64.9416 28.2277C65.1542 26.2119 66.3238 24.6832 67.5546 24.8127Z" fill="black"/>
<rect width="22.0426" height="6.68626" rx="3.34313" transform="matrix(-1 0 0 1 22.043 65.002)" fill="#EE3232"/>
</svg>
