<svg width="99" height="107" viewBox="0 0 99 107" fill="none" xmlns="http://www.w3.org/2000/svg">
<ellipse cx="38.7503" cy="100.312" rx="36.9299" ry="6.6875" fill="black" fill-opacity="0.3"/>
<rect width="18.3322" height="34.2391" rx="9.16612" transform="matrix(0.165217 -0.986257 0.986204 0.165532 37.2422 98.7305)" fill="#403A31"/>
<mask id="mask0_2083_21935" style="mask-type:alpha" maskUnits="userSpaceOnUse" x="38" y="82" width="35" height="22">
<rect x="37.2383" y="98.7305" width="18.3322" height="34.2391" rx="9.16612" transform="rotate(-80.481 37.2383 98.7305)" fill="#4B4338"/>
</mask>
<g mask="url(#mask0_2083_21935)">
<path d="M57.9508 104.003C57.8098 104.01 57.6673 104.003 57.5234 103.98L57.9508 104.003C63.0714 103.729 66.1594 84.1655 61.2093 82.9587L72.208 84.1948L75.185 89.1874L70.2854 104.639L57.9508 104.003Z" fill="#353029"/>
</g>
<path d="M63.8281 65.498C63.3281 58.498 58.4902 59.2776 56.8281 57.502L55.835 61.4606C55.5173 64.7915 52.3363 65.9411 52.3281 70.502C52.3249 72.3289 53.6544 75.0599 58.3281 73.502C61.3281 72.502 64.08 69.0246 63.8281 65.498Z" fill="#605649"/>
<path d="M58.5835 68.8461C59.329 81.5941 61.5283 96.1055 37.1497 96.1055C12.7711 96.1055 10.199 82.9167 11.7646 68.8461C13.3302 54.7756 22.2454 42.248 35.1741 42.248C48.1027 42.248 57.838 56.0982 58.5835 68.8461Z" fill="#4B4338"/>
<rect x="15.8242" y="95.7539" width="18.332" height="34.2395" rx="9.166" transform="rotate(-66.0245 15.8242 95.7539)" fill="#403A31"/>
<mask id="mask1_2083_21935" style="mask-type:alpha" maskUnits="userSpaceOnUse" x="18" y="81" width="34" height="26">
<rect x="15.8242" y="95.7539" width="18.332" height="34.2395" rx="9.166" transform="rotate(-66.0245 15.8242 95.7539)" fill="#4B4338"/>
</mask>
<g mask="url(#mask1_2083_21935)">
<path d="M35.6178 106.355C35.4798 106.326 35.344 106.282 35.2109 106.223L35.6178 106.355C40.6335 107.425 48.7159 89.3438 44.251 86.8895L54.5486 90.9474L56.1214 96.5422L47.3618 110.182L35.6178 106.355Z" fill="#353029"/>
</g>
<path d="M13.4978 89C1.82797 78 3.73702 63 13.4966 57.4551L18.4669 61.5128C14.2347 66 17.3239 74.5 23.8242 79.5C23.8242 79.5 26.3281 84.5 23.3281 88.5C20.3281 92.5 13.4978 89 13.4978 89Z" fill="#605649"/>
<path d="M12.9165 56.5722C13.5451 56.0295 14.4935 56.0998 15.0356 56.7291C15.0375 56.7313 15.0414 56.7355 15.047 56.7419C15.0591 56.7554 15.0796 56.7784 15.1087 56.8101C15.167 56.8736 15.2593 56.9721 15.3855 57.1005C15.6381 57.3574 16.0262 57.7336 16.5489 58.1886C17.595 59.0992 19.1765 60.3221 21.2871 61.5366C25.5021 63.9619 31.8335 66.3581 40.2612 66.1634C48.8001 65.9661 52.4727 63.8196 54.0493 62.0925C54.8408 61.2255 55.1687 60.3985 55.3073 59.8209C55.3775 59.5285 55.4001 59.2951 55.4065 59.1485C55.4097 59.0753 55.4088 59.0246 55.4079 58.9999C55.4075 58.9876 55.4071 58.9819 55.4072 58.9832C55.4072 58.9838 55.4074 58.9863 55.4078 58.9906C55.408 58.9928 55.4082 58.9954 55.4085 58.9984C55.4086 59 55.4088 59.0017 55.409 59.0035C55.4091 59.0043 55.4092 59.0057 55.4093 59.0062C55.3245 58.18 55.9232 57.4407 56.7479 57.3541C57.5736 57.2674 58.3131 57.8678 58.3997 58.6951L56.9046 58.8521C58.3881 58.6963 58.3997 58.6967 58.4 58.6982C58.4 58.6988 58.4002 58.7005 58.4003 58.7016C58.4006 58.7039 58.4008 58.7063 58.401 58.7088C58.4015 58.714 58.4021 58.7196 58.4026 58.7258C58.4037 58.7382 58.4049 58.7528 58.4061 58.7694C58.4084 58.8026 58.4108 58.8442 58.4125 58.8935C58.416 58.9922 58.417 59.1227 58.4101 59.2804C58.3963 59.5954 58.351 60.0225 58.2304 60.5251C57.9875 61.5375 57.4423 62.839 56.2677 64.1257C53.9121 66.7061 49.2803 68.9682 40.3305 69.175C31.2695 69.3844 24.4018 66.8026 19.7899 64.149C17.4871 62.8239 15.7482 61.4821 14.5773 60.4628C13.9915 59.9529 13.5469 59.5229 13.244 59.2148C13.0925 59.0607 12.9763 58.937 12.8954 58.8489C12.855 58.8049 12.8234 58.7697 12.8007 58.7441C12.7893 58.7313 12.7801 58.7209 12.7732 58.7129C12.7697 58.709 12.7668 58.7055 12.7645 58.7028C12.7633 58.7015 12.7622 58.7003 12.7613 58.6992C12.7609 58.6987 12.7603 58.698 12.76 58.6977C12.7596 58.697 12.7691 58.6878 13.8978 57.7133L12.759 58.6965C12.2171 58.0663 12.2876 57.1153 12.9165 56.5722ZM15.0351 56.7283C15.0352 56.7285 15.0356 56.7291 15.0356 56.7291C15.0355 56.729 15.0354 56.7288 15.0353 56.7287L15.0351 56.7283Z" fill="#E8C92B"/>
<path d="M58.9433 31.6013C56.9037 31.8385 55.281 33.0758 54.2247 34.1557C53.2519 35.1502 53.1044 36.6174 53.5448 37.9342L53.5568 37.9701C53.824 38.769 54.2932 39.5044 55.0444 39.8919C55.8275 40.2958 56.9631 40.6826 58.2018 40.4573C60.4972 40.0397 61.9193 39.0195 63.0762 37.0519C63.4597 36.3998 63.7278 35.6373 63.9149 34.9092C64.3491 33.2194 63.3264 31.6064 61.5765 31.5069C60.8526 31.4658 59.9781 31.4809 58.9433 31.6013Z" fill="#4B4338"/>
<path d="M52.0624 20.2424C51.4391 23.3284 48.8359 25.3122 48.8359 25.3122L56.5354 32.7333C56.5354 32.7333 62.1816 28.986 60.6051 21.9324C59.3297 16.2261 52.8474 13.5252 50.4175 12.7016C50.0979 12.5933 49.8333 12.9475 50.004 13.2392C50.8772 14.7316 52.5264 17.9451 52.0624 20.2424Z" fill="#E2C093"/>
<path d="M61.9965 49.1195C61.9965 55.2215 56.4152 60.506 48.2797 63.0744L18.8429 59.553C12.3534 55.8425 9.93359 50.4541 9.93359 43.9027C9.93359 31.3434 21.0958 21.1621 34.8651 21.1621C48.1702 21.1621 59.041 30.6685 59.7589 42.6409C61.1958 44.6144 61.9965 46.8083 61.9965 49.1195Z" fill="#4B4338"/>
<path d="M8.36166 25.2381C8.52456 31.0492 13.4068 33.611 14.4921 34.1095C14.6345 34.1749 14.78 34.2148 14.9358 34.2309C15.8557 34.3258 19.2949 34.4917 21.1574 31.9611C22.6678 29.9089 22.4801 27.8747 22.2292 26.8339C22.115 26.3599 21.7655 25.9982 21.3699 25.7143C20.5143 25.1001 18.9997 23.7737 18.1876 21.6378C17.2817 19.2549 18.3213 14.5062 18.8421 12.4662C18.9268 12.1343 18.5631 11.8691 18.2856 12.0691C15.7507 13.8958 8.20909 19.7959 8.36166 25.2381Z" fill="#E2C093"/>
<path d="M9.23002 32.4087C11.3202 32.167 13.231 33.0241 14.5397 33.8568C15.7449 34.6236 16.2389 36.0573 16.1109 37.4785L16.1074 37.5172C16.0298 38.3794 15.7357 39.2256 15.0782 39.7898C14.3927 40.378 13.3516 41.0318 12.0631 41.0972C9.67522 41.2184 8.01585 40.5314 6.39696 38.8341C5.86042 38.2716 5.41278 37.5715 5.05406 36.8867C4.22159 35.2977 4.86011 33.4433 6.5818 32.9327C7.29399 32.7215 8.16966 32.5313 9.23002 32.4087Z" fill="#4B4338"/>
<rect x="27.3984" y="37.8906" width="2" height="11" rx="1" transform="rotate(-60.9835 27.3984 37.8906)" fill="black"/>
<rect width="2" height="11" rx="1" transform="matrix(-0.87448 -0.485062 -0.485062 0.87448 36.0508 35.4121)" fill="black"/>
<rect x="46.1641" y="35.4277" width="2" height="11" rx="1" transform="rotate(-36.5097 46.1641 35.4277)" fill="black"/>
<rect width="2" height="11" rx="1" transform="matrix(-0.594959 -0.803756 -0.803756 0.594959 55.0625 36.7559)" fill="black"/>
<ellipse cx="43.5946" cy="49.816" rx="9.89928" ry="7.56796" fill="#353029"/>
<ellipse cx="1.79811" cy="2.39445" rx="1.79811" ry="2.39445" transform="matrix(0.750226 -0.661181 0.659686 0.751542 36.9922 47.0508)" fill="black"/>
<ellipse cx="1.79811" cy="2.39445" rx="1.79811" ry="2.39445" transform="matrix(-0.750226 -0.661181 -0.659686 0.751542 51.5781 47.0508)" fill="black"/>
<path d="M47.0714 52.2383C47.4784 52.1149 47.9081 52.3455 48.0313 52.7533C48.1545 53.1611 47.9244 53.5918 47.5174 53.7152L47.1925 53.8137C45.4501 54.3421 43.599 54.3984 41.8277 53.9769L41.3969 53.8743C40.9832 53.7759 40.7275 53.36 40.8257 52.9455C40.9239 52.5309 41.339 52.2747 41.7527 52.3731L42.1835 52.4756C43.6901 52.8341 45.2645 52.7863 46.7466 52.3369L47.0714 52.2383Z" fill="black"/>
<rect x="20.5547" y="88.4199" width="56.2426" height="3.15944" rx="1.57972" transform="rotate(-105 20.5547 88.4199)" fill="#EAC64F"/>
<rect x="9.84766" y="35.9434" width="22" height="22" rx="3" transform="rotate(-105 9.84766 35.9434)" fill="#CFCFCF"/>
<rect x="5.01953" y="37.2383" width="22" height="19" rx="3" transform="rotate(-105 5.01953 37.2383)" fill="#EE3232"/>
<path d="M38.8281 73.502C45.8281 75.502 59.8281 74.002 59.8281 72.502L58.3281 60.502C57.3281 64.502 49.7762 64.6074 40.8281 62.502C32.3281 60.502 24.3281 53 17.8281 49.5L8.82812 56.5C17.3281 65 31.4802 71.4025 38.8281 73.502Z" fill="#605649"/>
<ellipse cx="12.891" cy="51.576" rx="6.56285" ry="6.57604" fill="#605649"/>
<circle cx="18.8281" cy="84.5" r="7.5" fill="#605649"/>
</svg>
