<svg width="369" height="136" viewBox="0 0 369 136" fill="none" xmlns="http://www.w3.org/2000/svg">
<rect x="67.0898" y="96" width="245.639" height="30" rx="15" fill="#303030"/>
<rect x="129.852" y="106" width="120.114" height="30" rx="15" fill="#303030"/>
<path d="M0 64H369C369 92.1665 346.167 115 318 115H51C22.8335 115 0 92.1665 0 64Z" fill="#303030"/>
<path d="M0 61C0 49.9543 8.95431 41 20 41H105.525C116.571 41 125.525 49.9543 125.525 61V74C125.525 85.0457 116.571 94 105.525 94H29C12.9837 94 0 81.0163 0 65V61Z" fill="black" fill-opacity="0.3"/>
<rect x="225" y="94" width="92" height="16" rx="8" fill="black" fill-opacity="0.3"/>
<rect x="170.973" y="124" width="28.1349" height="5" rx="2.5" fill="black" fill-opacity="0.3"/>
<rect x="82.2422" y="113" width="28.1349" height="5" rx="2.5" fill="black" fill-opacity="0.3"/>
<path d="M369 61C369 49.9543 360.046 41 349 41H263.475C252.429 41 243.475 49.9543 243.475 61V74C243.475 85.0457 252.429 94 263.475 94H340C356.016 94 369 81.0163 369 65V61Z" fill="black" fill-opacity="0.3"/>
<rect y="41" width="369" height="46" rx="20" fill="#52D377"/>
<rect x="27.5234" y="56.1836" width="313.953" height="46.1833" rx="23.0917" fill="#52D377"/>
<rect x="63.9141" y="28" width="241.18" height="46.1833" rx="23.0917" fill="#52D377"/>
<rect x="15.1484" y="41" width="83.3226" height="21" rx="10.5" fill="white" fill-opacity="0.2"/>
<rect x="270.527" y="66" width="83.3226" height="21" rx="10.5" fill="white" fill-opacity="0.2"/>
<ellipse cx="327" cy="71" rx="42" ry="4" fill="black" fill-opacity="0.3"/>
<rect x="324" y="21" width="6" height="51" rx="3" fill="#222222"/>
<rect x="284" width="85" height="42" rx="10" fill="#303030"/>
<rect x="285" y="1" width="83" height="40" rx="9" stroke="#00FFE5" stroke-opacity="0.3" stroke-width="2"/>
<path d="M319.074 25.9941V16.752H323.729C325.319 16.752 326.275 17.5657 326.275 19.0274C326.275 20.1174 325.729 20.9311 324.462 21.0968V21.1935C325.877 21.373 326.573 22.2282 326.573 23.4414C326.573 25.0274 325.617 25.9931 323.904 25.9931H319.074V25.9941ZM320.403 20.6284H323.544C324.476 20.6284 324.948 20.2279 324.948 19.3589C324.948 18.4899 324.513 18.0894 323.582 18.0894H320.403V20.6273V20.6284ZM320.403 24.6567H323.755C324.748 24.6567 325.232 24.2424 325.232 23.2364C325.232 22.2303 324.736 21.8575 323.755 21.8575H320.403V24.6577V24.6567Z" fill="white"/>
<path d="M327.625 18.338V16.752H328.966V18.338H327.625ZM327.625 25.9931V19.1379H328.966V25.9931H327.625Z" fill="white"/>
<path d="M333.023 25.9931C331.695 25.9931 330.875 25.3451 330.875 23.6762V20.3798H329.832V19.138H330.875V17.6348H332.203V19.138H334.438V20.3798H332.203V23.5933C332.203 24.4347 332.551 24.6556 333.321 24.6556H334.438V25.9942H333.023V25.9931Z" fill="white"/>
<path d="M335.473 25.9941V16.752H336.813V25.9941H335.473Z" fill="white"/>
<path d="M337.969 22.5726C337.969 20.4341 339.347 19 341.396 19C343.445 19 344.835 20.4341 344.835 22.5726C344.835 24.711 343.457 26.1314 341.396 26.1314C339.335 26.1314 337.969 24.6834 337.969 22.5726ZM343.518 22.5726C343.518 21.1108 342.898 20.3109 341.396 20.3109C339.894 20.3109 339.285 21.1108 339.285 22.5726C339.285 24.0343 339.905 24.8077 341.396 24.8077C342.886 24.8077 343.518 24.0216 343.518 22.5726Z" fill="white"/>
<path d="M345.738 22.5726C345.738 20.4341 347.066 19 349.103 19C350.952 19 352.306 20.159 352.306 21.8693V22.0074H350.978V21.9246C350.978 20.8623 350.283 20.3385 349.078 20.3385C347.688 20.3385 347.067 21.0694 347.067 22.5736C347.067 24.0779 347.688 24.795 349.078 24.795C350.283 24.795 350.978 24.2712 350.978 23.2089V23.1122H352.306V23.2642C352.306 24.9745 350.952 26.1335 349.103 26.1335C347.066 26.1335 345.738 24.6855 345.738 22.5747V22.5726Z" fill="white"/>
<path d="M353.484 25.9941V16.752H354.825V21.8553H356.587L358.437 19.1379H360.001L357.679 22.4343L359.989 25.9931H358.412L356.587 23.1928H354.825V25.9931H353.484V25.9941Z" fill="white"/>
<path d="M297.931 13.4121H293.866C293.632 13.4121 293.441 13.6024 293.441 13.837V17.9015C293.441 18.1362 293.632 18.3264 293.866 18.3264H297.931C298.165 18.3264 298.356 18.1362 298.356 17.9015V13.837C298.356 13.6024 298.165 13.4121 297.931 13.4121Z" fill="#00FFE5"/>
<path d="M297.931 24.5566H293.866C293.632 24.5566 293.441 24.7469 293.441 24.9816V29.046C293.441 29.2807 293.632 29.4709 293.866 29.4709H297.931C298.165 29.4709 298.356 29.2807 298.356 29.046V24.9816C298.356 24.7469 298.165 24.5566 297.931 24.5566Z" fill="#00FFE5"/>
<path d="M309.613 18.8734C309.752 18.7342 309.831 18.5452 309.831 18.3476V13.3908C309.831 13.1932 309.752 13.0041 309.613 12.8649L304.475 7.72754C304.336 7.58838 304.147 7.50977 303.95 7.50977H299.322C298.97 7.50977 298.685 7.79553 298.685 8.14716V12.4453C298.685 12.7969 298.97 13.0827 299.322 13.0827H303.62C303.972 13.0827 304.258 13.3685 304.258 13.7201V18.0182C304.258 18.3699 303.972 18.6556 303.62 18.6556H299.231C299.099 18.6556 298.978 18.7024 298.883 18.7799C298.87 18.7906 298.857 18.8033 298.844 18.815C298.82 18.8394 298.797 18.867 298.777 18.8957C298.719 18.9828 298.684 19.088 298.684 19.2006V23.6804C298.684 23.9821 298.928 24.2264 299.23 24.2264H303.619C303.971 24.2264 304.257 24.5122 304.257 24.8638V29.162C304.257 29.5136 303.971 29.7994 303.619 29.7994H299.321C298.969 29.7994 298.684 30.0851 298.684 30.4368V34.7349C298.684 35.0865 298.969 35.3723 299.321 35.3723H303.948C304.146 35.3723 304.335 35.2937 304.474 35.1545L309.612 30.0172C309.751 29.878 309.829 29.6889 309.829 29.4913V24.5345C309.829 24.3369 309.751 24.1478 309.612 24.0087L307.493 21.8904C307.245 21.6418 307.245 21.2381 307.493 20.9885L309.612 18.8702L309.613 18.8734Z" fill="#00FFE5"/>
<rect x="324" y="34" width="38" height="4" rx="2" fill="black" fill-opacity="0.3"/>
<rect x="292" y="3" width="59" height="3" rx="1.5" fill="white" fill-opacity="0.2"/>
</svg>
