<svg width="128" height="128" viewBox="0 0 128 128" fill="none" xmlns="http://www.w3.org/2000/svg">
<path d="M53.9314 52.985C48.1985 57.6616 45.332 60 45.332 63.9994C45.332 67.9987 48.1985 70.3371 53.9314 75.0137C55.514 76.3048 57.0837 77.5203 58.5261 78.5331C59.7915 79.4217 61.2246 80.3409 62.7084 81.2431C68.4279 84.7212 71.2876 86.4602 73.8525 84.5348C76.4174 82.6094 76.6505 78.5788 77.1167 70.5175C77.2485 68.2377 77.332 66.0029 77.332 63.9994C77.332 61.9958 77.2485 59.761 77.1167 57.4812C76.6505 49.4199 76.4174 45.3893 73.8525 43.4639C71.2876 41.5385 68.4279 43.2775 62.7084 46.7556C61.2246 47.6578 59.7915 48.577 58.5261 49.4656C57.0837 50.4784 55.514 51.694 53.9314 52.985Z" stroke="#00FFE5" stroke-width="6"/>
<path d="M37.3346 17.8011C45.1793 13.2632 54.287 10.666 64.0013 10.666C93.4565 10.666 117.335 34.5442 117.335 63.9994C117.335 93.4545 93.4565 117.333 64.0013 117.333C34.5461 117.333 10.668 93.4545 10.668 63.9994C10.668 54.285 13.2651 45.1773 17.803 37.3327" stroke="#00FFE5" stroke-width="6" stroke-linecap="round"/>
</svg>
