<svg width="128" height="128" viewBox="0 0 128 128" fill="none" xmlns="http://www.w3.org/2000/svg">
<path d="M85.2119 46.4774L82.8549 44.0645C72.4409 33.4036 55.5565 33.4036 45.1425 44.0645C34.7285 54.7254 34.7285 72.0101 45.1425 82.671C55.5565 93.3319 72.4409 93.3319 82.8549 82.671C88.911 76.4713 91.4452 68.0316 90.4577 59.9572M85.2119 46.4774H71.0698M85.2119 46.4774V32" stroke="#00FFE5" stroke-width="6" stroke-linecap="round" stroke-linejoin="round"/>
<path d="M37.3346 17.8011C45.1793 13.2632 54.287 10.666 64.0013 10.666C93.4565 10.666 117.335 34.5442 117.335 63.9994C117.335 93.4545 93.4565 117.333 64.0013 117.333C34.5461 117.333 10.668 93.4545 10.668 63.9994C10.668 54.285 13.2651 45.1773 17.803 37.3327" stroke="#00FFE5" stroke-width="6" stroke-linecap="round"/>
</svg>
