<svg width="128" height="128" viewBox="0 0 128 128" fill="none" xmlns="http://www.w3.org/2000/svg">
<path d="M74.0686 52.985C79.8015 57.6616 82.668 60 82.668 63.9994C82.668 67.9987 79.8015 70.3371 74.0686 75.0137C72.486 76.3048 70.9163 77.5203 69.4739 78.5331C68.2085 79.4217 66.7754 80.3409 65.2916 81.2431C59.5721 84.7212 56.7124 86.4602 54.1475 84.5348C51.5826 82.6094 51.3495 78.5788 50.8833 70.5175C50.7515 68.2377 50.668 66.0029 50.668 63.9994C50.668 61.9958 50.7515 59.761 50.8833 57.4812C51.3495 49.4199 51.5826 45.3893 54.1475 43.4639C56.7124 41.5385 59.5721 43.2775 65.2916 46.7556C66.7754 47.6578 68.2085 48.577 69.4739 49.4656C70.9163 50.4784 72.486 51.694 74.0686 52.985Z" stroke="#00FFE5" stroke-width="6"/>
<path d="M37.3346 17.8011C45.1793 13.2632 54.287 10.666 64.0013 10.666C93.4565 10.666 117.335 34.5442 117.335 63.9994C117.335 93.4545 93.4565 117.333 64.0013 117.333C34.5461 117.333 10.668 93.4545 10.668 63.9994C10.668 54.285 13.2651 45.1773 17.803 37.3327" stroke="#00FFE5" stroke-width="6" stroke-linecap="round"/>
</svg>
