<svg width="128" height="128" viewBox="0 0 128 128" fill="none" xmlns="http://www.w3.org/2000/svg">
<path d="M54.5066 44.0364H44.0875C43.4869 44.0364 43 44.5205 43 45.1177V55.4781C43 56.0753 43.4869 56.5594 44.0875 56.5594H54.5066C55.1072 56.5594 55.5941 56.0753 55.5941 55.4781V45.1177C55.5941 44.5205 55.1072 44.0364 54.5066 44.0364Z" fill="#00FFE5"/>
<path d="M54.5066 72.4376H44.0875C43.4869 72.4376 43 72.9217 43 73.5189V83.8793C43 84.4765 43.4869 84.9607 44.0875 84.9607H54.5066C55.1072 84.9607 55.5941 84.4765 55.5941 83.8793V73.5189C55.5941 72.9217 55.1072 72.4376 54.5066 72.4376Z" fill="#00FFE5"/>
<path d="M84.4416 57.9535C84.8001 57.5969 85 57.1148 85 56.615V43.9838C85 43.4812 84.8001 42.9989 84.4416 42.6453L71.2773 29.5553C70.9187 29.1987 70.4367 29 69.9311 29H58.0718C57.1695 29 56.4376 29.7277 56.4376 30.6249V41.5757C56.4376 42.4729 57.1695 43.2005 58.0718 43.2005H69.0847C69.987 43.2005 70.7188 43.9283 70.7188 44.8255V55.7762C70.7188 56.6734 69.987 57.4012 69.0847 57.4012H57.8367C57.4987 57.4012 57.1871 57.521 56.9461 57.7197C56.9109 57.749 56.8785 57.7781 56.8462 57.8103C56.7815 57.8746 56.7257 57.9419 56.6757 58.0149C56.5258 58.237 56.4376 58.5059 56.4376 58.7923V70.2077C56.4376 70.9763 57.0637 71.5988 57.8367 71.5988H69.0847C69.987 71.5988 70.7188 72.3265 70.7188 73.2237V84.1745C70.7188 85.0717 69.987 85.7994 69.0847 85.7994H58.0718C57.1695 85.7994 56.4376 86.5271 56.4376 87.4243V98.3751C56.4376 99.2723 57.1695 100 58.0718 100H69.9311C70.4367 100 70.9216 99.8013 71.2773 99.4447L84.4416 86.3547C84.8001 85.9982 85 85.5159 85 85.0162V72.385C85 71.8823 84.8001 71.4001 84.4416 71.0464L79.013 65.6485C78.3752 65.0143 78.3752 63.9857 79.013 63.3515L84.4416 57.9535Z" fill="#00FFE5"/>
<path d="M37.3346 17.8011C45.1793 13.2632 54.287 10.666 64.0013 10.666C93.4565 10.666 117.335 34.5442 117.335 63.9994C117.335 93.4545 93.4565 117.333 64.0013 117.333C34.5461 117.333 10.668 93.4545 10.668 63.9994C10.668 54.285 13.2651 45.1773 17.803 37.3327" stroke="#00FFE5" stroke-width="6" stroke-linecap="round"/>
</svg>
