<svg width="99" height="107" viewBox="0 0 99 107" fill="none" xmlns="http://www.w3.org/2000/svg">
<ellipse cx="36.9299" cy="6.6875" rx="36.9299" ry="6.6875" transform="matrix(-1 0 0 1 97 93.625)" fill="black" fill-opacity="0.3"/>
<rect width="18.3322" height="34.2391" rx="9.16612" transform="matrix(-0.165217 -0.986257 -0.986204 0.165532 61.5781 98.7305)" fill="#403A31"/>
<mask id="mask0_2083_22003" style="mask-type:alpha" maskUnits="userSpaceOnUse" x="26" y="82" width="35" height="22">
<rect width="18.3322" height="34.2391" rx="9.16612" transform="matrix(-0.165375 -0.986231 -0.986231 0.165375 61.582 98.7324)" fill="#4B4338"/>
</mask>
<g mask="url(#mask0_2083_22003)">
<path d="M40.8695 104.004C41.0105 104.012 41.153 104.005 41.2969 103.982L40.8695 104.004C35.7489 103.731 32.6609 84.1675 37.611 82.9606L26.6123 84.1968L23.6353 89.1893L28.5349 104.641L40.8695 104.004Z" fill="#353029"/>
</g>
<path d="M34.9961 65.5C35.4961 58.5 40.334 59.2796 41.9961 57.5039L42.9892 61.4625C43.3069 64.7934 46.4879 65.943 46.4961 70.5039C46.4993 72.3309 45.1698 75.0618 40.4961 73.5039C37.4961 72.5039 34.7442 69.0265 34.9961 65.5Z" fill="#605649"/>
<path d="M40.2407 68.8481C39.4952 81.5961 37.2959 96.1074 61.6745 96.1074C86.0531 96.1074 88.6252 82.9186 87.0596 68.8481C85.494 54.7775 76.5788 42.25 63.6501 42.25C50.7215 42.25 40.9862 56.1001 40.2407 68.8481Z" fill="#4B4338"/>
<rect width="18.332" height="34.2395" rx="9.166" transform="matrix(-0.406346 -0.913719 -0.913719 0.406346 83 95.7539)" fill="#403A31"/>
<mask id="mask1_2083_22003" style="mask-type:alpha" maskUnits="userSpaceOnUse" x="47" y="81" width="34" height="26">
<rect width="18.332" height="34.2395" rx="9.166" transform="matrix(-0.406346 -0.913719 -0.913719 0.406346 83 95.7539)" fill="#4B4338"/>
</mask>
<g mask="url(#mask1_2083_22003)">
<path d="M63.2064 106.355C63.3444 106.326 63.4802 106.282 63.6133 106.223L63.2064 106.355C58.1907 107.425 50.1083 89.3438 54.5732 86.8895L44.2756 90.9474L42.7028 96.5422L51.4624 110.182L63.2064 106.355Z" fill="#353029"/>
</g>
<path d="M85.3264 89.002C96.9962 78.002 95.0872 63.002 85.3277 57.457L80.3573 61.5147C84.5895 66.002 81.5003 74.502 75 79.502C75 79.502 72.4961 84.502 75.4961 88.502C78.4961 92.502 85.3264 89.002 85.3264 89.002Z" fill="#605649"/>
<path d="M85.9077 56.5742C85.2791 56.0314 84.3307 56.1018 83.7886 56.731C83.7867 56.7332 83.7829 56.7375 83.7772 56.7438C83.7652 56.7574 83.7446 56.7803 83.7155 56.8121C83.6572 56.8755 83.565 56.974 83.4387 57.1024C83.1861 57.3593 82.798 57.7355 82.2753 58.1906C81.2292 59.1011 79.6477 60.3241 77.5371 61.5385C73.3221 63.9638 66.9908 66.3601 58.563 66.1653C50.0242 65.968 46.3515 63.8216 44.7749 62.0945C43.9834 61.2275 43.6555 60.4005 43.5169 59.8228C43.4468 59.5304 43.4242 59.297 43.4177 59.1504C43.4145 59.0773 43.4154 59.0265 43.4163 59.0018C43.4167 58.9896 43.4171 58.9839 43.417 58.9851C43.417 58.9858 43.4168 58.9883 43.4165 58.9926C43.4163 58.9947 43.416 58.9973 43.4157 59.0004C43.4156 59.0019 43.4154 59.0036 43.4152 59.0054C43.4151 59.0063 43.415 59.0077 43.4149 59.0081C43.4998 58.182 42.901 57.4426 42.0763 57.356C41.2506 57.2693 40.5111 57.8697 40.4245 58.6971L41.9196 58.8541C40.4361 58.6983 40.4245 58.6986 40.4243 58.7002C40.4242 58.7007 40.424 58.7024 40.4239 58.7035C40.4237 58.7058 40.4234 58.7082 40.4232 58.7108C40.4227 58.7159 40.4221 58.7216 40.4216 58.7278C40.4205 58.7402 40.4193 58.7547 40.4182 58.7714C40.4158 58.8046 40.4135 58.8461 40.4117 58.8955C40.4082 58.9942 40.4073 59.1246 40.4142 59.2823C40.4279 59.5974 40.4732 60.0244 40.5938 60.527C40.8368 61.5394 41.3819 62.8409 42.5566 64.1277C44.9121 66.708 49.5439 68.9701 58.4937 69.1769C67.5547 69.3863 74.4224 66.8046 79.0343 64.1509C81.3371 62.8259 83.076 61.4841 84.247 60.4647C84.8327 59.9548 85.2773 59.5248 85.5803 59.2167C85.7318 59.0626 85.848 58.9389 85.9288 58.8509C85.9692 58.8068 86.0008 58.7716 86.0235 58.746C86.0349 58.7332 86.0441 58.7228 86.051 58.7149C86.0545 58.7109 86.0574 58.7075 86.0598 58.7048C86.0609 58.7034 86.062 58.7022 86.0629 58.7012C86.0634 58.7007 86.064 58.6999 86.0642 58.6997C86.0646 58.699 86.0552 58.6898 84.9265 57.7152L86.0652 58.6985C86.6071 58.0683 86.5366 57.1172 85.9077 56.5742ZM83.7892 56.7303C83.789 56.7305 83.7886 56.731 83.7886 56.731C83.7887 56.7309 83.7888 56.7307 83.7889 56.7306L83.7892 56.7303Z" fill="#E8C92B"/>
<path d="M39.8809 31.6032C41.9205 31.8405 43.5432 33.0777 44.5995 34.1576C45.5723 35.1522 45.7199 36.6194 45.2794 37.9362L45.2674 37.9721C45.0002 38.7709 44.531 39.5064 43.7798 39.8938C42.9967 40.2977 41.8611 40.6846 40.6224 40.4592C38.327 40.0416 36.9049 39.0214 35.748 37.0539C35.3646 36.4018 35.0965 35.6392 34.9094 34.9111C34.4752 33.2213 35.4978 31.6084 37.2478 31.5089C37.9717 31.4677 38.8461 31.4829 39.8809 31.6032Z" fill="#4B4338"/>
<path d="M46.7618 20.2444C47.3851 23.3304 49.9883 25.3142 49.9883 25.3142L42.2888 32.7352C42.2888 32.7352 36.6426 28.988 38.2191 21.9343C39.4945 16.2281 45.9768 13.5272 48.4067 12.7036C48.7263 12.5952 48.9909 12.9495 48.8202 13.2411C47.947 14.7336 46.2978 17.9471 46.7618 20.2444Z" fill="#E2C093"/>
<path d="M36.8278 49.1214C36.8278 55.2235 42.409 60.508 50.5446 63.0763L79.9813 59.5549C86.4708 55.8444 88.8906 50.4561 88.8906 43.9047C88.8906 31.3454 77.7284 21.1641 63.9591 21.1641C50.654 21.1641 39.7832 30.6705 39.0653 42.6428C37.6284 44.6163 36.8278 46.8102 36.8278 49.1214Z" fill="#4B4338"/>
<path d="M90.4626 25.24C90.2997 31.0511 85.4174 33.613 84.3321 34.1115C84.1898 34.1769 84.0442 34.2168 83.8884 34.2328C82.9685 34.3278 79.5294 34.4936 77.6668 31.963C76.1564 29.9109 76.3442 27.8766 76.595 26.8358C76.7092 26.3619 77.0588 26.0002 77.4543 25.7162C78.3099 25.102 79.8245 23.7757 80.6366 21.6397C81.5426 19.2568 80.5029 14.5081 79.9821 12.4681C79.8974 12.1362 80.2611 11.8711 80.5386 12.0711C83.0736 13.8977 90.6151 19.7979 90.4626 25.24Z" fill="#E2C093"/>
<path d="M89.5942 32.4106C87.504 32.169 85.5933 33.0261 84.2845 33.8587C83.0793 34.6255 82.5853 36.0592 82.7133 37.4804L82.7168 37.5192C82.7944 38.3814 83.0885 39.2276 83.746 39.7918C84.4315 40.3799 85.4726 41.0337 86.7611 41.0992C89.149 41.2204 90.8084 40.5334 92.4273 38.8361C92.9638 38.2736 93.4114 37.5734 93.7702 36.8887C94.6026 35.2996 93.9641 33.4453 92.2424 32.9347C91.5302 32.7234 90.6546 32.5332 89.5942 32.4106Z" fill="#4B4338"/>
<rect width="2" height="11" rx="1" transform="matrix(-0.485062 -0.87448 -0.87448 0.485062 71.4258 37.8926)" fill="black"/>
<rect x="62.7734" y="35.4141" width="2" height="11" rx="1" transform="rotate(-29.0165 62.7734 35.4141)" fill="black"/>
<rect width="2" height="11" rx="1" transform="matrix(-0.803756 -0.594959 -0.594959 0.803756 52.6602 35.4297)" fill="black"/>
<rect x="43.7617" y="36.7578" width="2" height="11" rx="1" transform="rotate(-53.4903 43.7617 36.7578)" fill="black"/>
<ellipse cx="9.89928" cy="7.56796" rx="9.89928" ry="7.56796" transform="matrix(-1 0 0 1 65.1289 42.25)" fill="#353029"/>
<ellipse cx="1.79811" cy="2.39445" rx="1.79811" ry="2.39445" transform="matrix(-0.750226 -0.661181 -0.659686 0.751542 61.832 47.0527)" fill="black"/>
<ellipse cx="1.79811" cy="2.39445" rx="1.79811" ry="2.39445" transform="matrix(0.750226 -0.661181 0.659686 0.751542 47.2461 47.0527)" fill="black"/>
<path d="M51.7528 52.2403C51.3458 52.1169 50.9161 52.3475 50.7929 52.7553C50.6698 53.1631 50.8999 53.5937 51.3068 53.7171L51.6317 53.8156C53.3741 54.344 55.2252 54.4003 56.9965 53.9788L57.4273 53.8763C57.841 53.7778 58.0968 53.362 57.9985 52.9474C57.9003 52.5329 57.4853 52.2766 57.0715 52.3751L56.6407 52.4776C55.1342 52.8361 53.5597 52.7882 52.0777 52.3388L51.7528 52.2403Z" fill="black"/>
<rect width="56.2426" height="3.15944" rx="1.57972" transform="matrix(0.258819 -0.965926 -0.965926 -0.258819 78.2695 88.4199)" fill="#EAC64F"/>
<rect width="22" height="22" rx="3" transform="matrix(0.258819 -0.965926 -0.965926 -0.258819 88.9766 35.9434)" fill="#CFCFCF"/>
<rect width="22" height="19" rx="3" transform="matrix(0.258819 -0.965926 -0.965926 -0.258819 93.8047 37.2383)" fill="#EE3232"/>
<path d="M59.9961 73.5039C52.9961 75.5039 38.9961 74.0039 38.9961 72.5039L40.4961 60.5039C41.4961 64.5039 49.0481 64.6093 57.9961 62.5039C66.4961 60.5039 74.4961 53.002 80.9961 49.502L89.9961 56.502C81.4961 65.002 67.344 71.4045 59.9961 73.5039Z" fill="#605649"/>
<ellipse cx="6.56285" cy="6.57604" rx="6.56285" ry="6.57604" transform="matrix(-1 0 0 1 92.4961 45.002)" fill="#605649"/>
<circle cx="7.5" cy="7.5" r="7.5" transform="matrix(-1 0 0 1 87.4961 77)" fill="#605649"/>
</svg>
