<svg width="20" height="20" viewBox="0 0 20 20" fill="none" xmlns="http://www.w3.org/2000/svg">
<g clip-path="url(#clip0_2101_21838)">
<path d="M8.51666 6.88069H6.88867C6.79483 6.88069 6.71875 6.95633 6.71875 7.04965V8.66845C6.71875 8.76177 6.79483 8.83741 6.88867 8.83741H8.51666C8.61051 8.83741 8.68658 8.76177 8.68658 8.66845V7.04965C8.68658 6.95633 8.61051 6.88069 8.51666 6.88069Z" fill="#222222"/>
<path d="M8.51666 11.3184H6.88867C6.79483 11.3184 6.71875 11.394 6.71875 11.4873V13.1061C6.71875 13.1995 6.79483 13.2751 6.88867 13.2751H8.51666C8.61051 13.2751 8.68658 13.1995 8.68658 13.1061V11.4873C8.68658 11.394 8.61051 11.3184 8.51666 11.3184Z" fill="#222222"/>
<path d="M13.194 9.05523C13.25 8.99952 13.2812 8.92418 13.2812 8.8461V6.87247C13.2812 6.79393 13.25 6.71858 13.194 6.66333L11.1371 4.61801C11.081 4.5623 11.0057 4.53125 10.9267 4.53125H9.07372C8.93273 4.53125 8.81838 4.64495 8.81838 4.78514V6.4962C8.81838 6.63639 8.93273 6.75008 9.07372 6.75008H10.7945C10.9355 6.75008 11.0498 6.86379 11.0498 7.00398V8.71503C11.0498 8.85522 10.9355 8.96893 10.7945 8.96893H9.03698C8.98417 8.96893 8.93549 8.98766 8.89783 9.01871C8.89232 9.02328 8.88727 9.02783 8.88222 9.03286C8.87211 9.0429 8.86339 9.05341 8.85558 9.06483C8.83216 9.09954 8.81838 9.14154 8.81838 9.18629V10.97C8.81838 11.0901 8.9162 11.1873 9.03698 11.1873H10.7945C10.9355 11.1873 11.0498 11.301 11.0498 11.4412V13.1523C11.0498 13.2925 10.9355 13.4062 10.7945 13.4062H9.07372C8.93273 13.4062 8.81838 13.5199 8.81838 13.6601V15.3711C8.81838 15.5113 8.93273 15.625 9.07372 15.625H10.9267C11.0057 15.625 11.0815 15.594 11.1371 15.5382L13.194 13.4929C13.25 13.4372 13.2812 13.3619 13.2812 13.2838V11.3102C13.2812 11.2316 13.25 11.1563 13.194 11.101L12.3458 10.2576C12.2461 10.1585 12.2461 9.99776 12.3458 9.89867L13.194 9.05523Z" fill="#222222"/>
<path d="M5.83464 2.78087C7.06036 2.07183 8.48344 1.66602 10.0013 1.66602C14.6037 1.66602 18.3346 5.39698 18.3346 9.99935C18.3346 14.6017 14.6037 18.3327 10.0013 18.3327C5.39893 18.3327 1.66797 14.6017 1.66797 9.99935C1.66797 8.48149 2.07378 7.05841 2.78282 5.83268" stroke="#222222" stroke-width="1.5" stroke-linecap="round"/>
</g>
<defs>
<clipPath id="clip0_2101_21838">
<rect width="20" height="20" fill="white" transform="matrix(-1 0 0 1 20 0)"/>
</clipPath>
</defs>
</svg>
