<svg width="42" height="42" viewBox="0 0 42 42" fill="none" xmlns="http://www.w3.org/2000/svg">
<path d="M17.885 14.4494H14.4662C14.2691 14.4494 14.1094 14.6083 14.1094 14.8043V18.2038C14.1094 18.3997 14.2691 18.5586 14.4662 18.5586H17.885C18.0821 18.5586 18.2418 18.3997 18.2418 18.2038V14.8043C18.2418 14.6083 18.0821 14.4494 17.885 14.4494Z" fill="#00FFE5"/>
<path d="M17.885 23.7686H14.4662C14.2691 23.7686 14.1094 23.9274 14.1094 24.1234V27.5229C14.1094 27.7189 14.2691 27.8777 14.4662 27.8777H17.885C18.0821 27.8777 18.2418 27.7189 18.2418 27.5229V24.1234C18.2418 23.9274 18.0821 23.7686 17.885 23.7686Z" fill="#00FFE5"/>
<path d="M27.7074 19.016C27.825 18.899 27.8906 18.7408 27.8906 18.5768V14.4322C27.8906 14.2673 27.825 14.109 27.7074 13.993L23.3879 9.69782C23.2702 9.58082 23.112 9.51562 22.9462 9.51562H19.0548C18.7587 9.51562 18.5186 9.75439 18.5186 10.0488V13.642C18.5186 13.9364 18.7587 14.1752 19.0548 14.1752H22.6684C22.9645 14.1752 23.2046 14.414 23.2046 14.7084V18.3016C23.2046 18.596 22.9645 18.8348 22.6684 18.8348H18.9777C18.8667 18.8348 18.7645 18.8741 18.6854 18.9393C18.6739 18.9489 18.6633 18.9585 18.6527 18.969C18.6314 18.9901 18.6131 19.0122 18.5967 19.0361C18.5475 19.109 18.5186 19.1972 18.5186 19.2912V23.0369C18.5186 23.2891 18.724 23.4934 18.9777 23.4934H22.6684C22.9645 23.4934 23.2046 23.7321 23.2046 24.0265V27.6198C23.2046 27.9142 22.9645 28.1529 22.6684 28.1529H19.0548C18.7587 28.1529 18.5186 28.3917 18.5186 28.6861V32.2793C18.5186 32.5737 18.7587 32.8125 19.0548 32.8125H22.9462C23.112 32.8125 23.2712 32.7473 23.3879 32.6303L27.7074 28.3351C27.825 28.2181 27.8906 28.0599 27.8906 27.8959V23.7513C27.8906 23.5864 27.825 23.4281 27.7074 23.3121L25.9261 21.5409C25.7169 21.3328 25.7169 20.9953 25.9261 20.7872L27.7074 19.016Z" fill="#00FFE5"/>
<path d="M12.25 5.84119C14.824 4.3522 17.8125 3.5 21 3.5C30.665 3.5 38.5 11.335 38.5 21C38.5 30.665 30.665 38.5 21 38.5C11.335 38.5 3.5 30.665 3.5 21C3.5 17.8125 4.3522 14.824 5.84119 12.25" stroke="#00FFE5" stroke-width="3" stroke-linecap="round"/>
</svg>
