<svg width="85" height="75" viewBox="0 0 85 75" fill="none" xmlns="http://www.w3.org/2000/svg">
<ellipse cx="43" cy="71" rx="42" ry="4" fill="black" fill-opacity="0.3"/>
<rect x="40" y="21" width="6" height="51" rx="3" fill="#222222"/>
<rect width="85" height="42" rx="10" fill="#303030"/>
<rect x="1" y="1" width="83" height="40" rx="9" stroke="#00FFE5" stroke-opacity="0.3" stroke-width="2"/>
<path d="M35.0742 25.9941V16.752H39.7293C41.3185 16.752 42.2746 17.5657 42.2746 19.0274C42.2746 20.1174 41.7286 20.9311 40.4623 21.0968V21.1935C41.8773 21.373 42.5731 22.2282 42.5731 23.4414C42.5731 25.0274 41.617 25.9931 39.9035 25.9931H35.0742V25.9941ZM36.4032 20.6284H39.5445C40.4761 20.6284 40.9478 20.2279 40.9478 19.3589C40.9478 18.4899 40.5133 18.0894 39.5816 18.0894H36.4032V20.6273V20.6284ZM36.4032 24.6567H39.7548C40.7481 24.6567 41.2325 24.2424 41.2325 23.2364C41.2325 22.2303 40.7364 21.8575 39.7548 21.8575H36.4032V24.6577V24.6567Z" fill="white"/>
<path d="M43.625 18.338V16.752H44.9657V18.338H43.625ZM43.625 25.9931V19.1379H44.9657V25.9931H43.625Z" fill="white"/>
<path d="M49.0232 25.9931C47.6953 25.9931 46.8752 25.3451 46.8752 23.6762V20.3798H45.832V19.138H46.8752V17.6348H48.2031V19.138H50.4383V20.3798H48.2031V23.5933C48.2031 24.4347 48.5505 24.6556 49.3207 24.6556H50.4383V25.9942H49.0232V25.9931Z" fill="white"/>
<path d="M51.4727 25.9941V16.752H52.8133V25.9941H51.4727Z" fill="white"/>
<path d="M53.9688 22.5726C53.9688 20.4341 55.3466 19 57.3958 19C59.445 19 60.8345 20.4341 60.8345 22.5726C60.8345 24.711 59.4567 26.1314 57.3958 26.1314C55.3349 26.1314 53.9688 24.6834 53.9688 22.5726ZM59.5183 22.5726C59.5183 21.1108 58.8979 20.3109 57.3958 20.3109C55.8937 20.3109 55.285 21.1108 55.285 22.5726C55.285 24.0343 55.9054 24.8077 57.3958 24.8077C58.8862 24.8077 59.5183 24.0216 59.5183 22.5726Z" fill="white"/>
<path d="M61.7383 22.5726C61.7383 20.4341 63.0662 19 65.1027 19C66.9522 19 68.3056 20.159 68.3056 21.8693V22.0074H66.9777V21.9246C66.9777 20.8623 66.2829 20.3385 65.0782 20.3385C63.6876 20.3385 63.0672 21.0694 63.0672 22.5736C63.0672 24.0779 63.6876 24.795 65.0782 24.795C66.2829 24.795 66.9777 24.2712 66.9777 23.2089V23.1122H68.3056V23.2642C68.3056 24.9745 66.9522 26.1335 65.1027 26.1335C63.0662 26.1335 61.7383 24.6855 61.7383 22.5747V22.5726Z" fill="white"/>
<path d="M69.4844 25.9941V16.752H70.825V21.8553H72.5874L74.4369 19.1379H76.0006L73.6795 22.4343L75.989 25.9931H74.4125L72.5874 23.1928H70.825V25.9931H69.4844V25.9941Z" fill="white"/>
<path d="M13.9308 13.4121H9.86633C9.63165 13.4121 9.44141 13.6024 9.44141 13.837V17.9015C9.44141 18.1362 9.63165 18.3264 9.86633 18.3264H13.9308C14.1655 18.3264 14.3557 18.1362 14.3557 17.9015V13.837C14.3557 13.6024 14.1655 13.4121 13.9308 13.4121Z" fill="#00FFE5"/>
<path d="M13.9308 24.5566H9.86633C9.63165 24.5566 9.44141 24.7469 9.44141 24.9816V29.046C9.44141 29.2807 9.63165 29.4709 9.86633 29.4709H13.9308C14.1655 29.4709 14.3557 29.2807 14.3557 29.046V24.9816C14.3557 24.7469 14.1655 24.5566 13.9308 24.5566Z" fill="#00FFE5"/>
<path d="M25.6127 18.8734C25.7519 18.7342 25.8305 18.5452 25.8305 18.3476V13.3908C25.8305 13.1932 25.7519 13.0041 25.6127 12.8649L20.4754 7.72754C20.3362 7.58838 20.1471 7.50977 19.9495 7.50977H15.322C14.9704 7.50977 14.6847 7.79553 14.6847 8.14716V12.4453C14.6847 12.7969 14.9704 13.0827 15.322 13.0827H19.6202C19.9718 13.0827 20.2576 13.3685 20.2576 13.7201V18.0182C20.2576 18.3699 19.9718 18.6556 19.6202 18.6556H15.2307C15.099 18.6556 14.9779 18.7024 14.8833 18.7799C14.8695 18.7906 14.8568 18.8033 14.844 18.815C14.8196 18.8394 14.7973 18.867 14.7771 18.8957C14.7187 18.9828 14.6836 19.088 14.6836 19.2006V23.6804C14.6836 23.9821 14.9279 24.2264 15.2296 24.2264H19.6191C19.9708 24.2264 20.2565 24.5122 20.2565 24.8638V29.162C20.2565 29.5136 19.9708 29.7994 19.6191 29.7994H15.321C14.9694 29.7994 14.6836 30.0851 14.6836 30.4368V34.7349C14.6836 35.0865 14.9694 35.3723 15.321 35.3723H19.9485C20.1461 35.3723 20.3351 35.2937 20.4743 35.1545L25.6117 30.0172C25.7508 29.878 25.8295 29.6889 25.8295 29.4913V24.5345C25.8295 24.3369 25.7508 24.1478 25.6117 24.0087L23.4934 21.8904C23.2448 21.6418 23.2448 21.2381 23.4934 20.9885L25.6117 18.8702L25.6127 18.8734Z" fill="#00FFE5"/>
<rect x="40" y="34" width="38" height="4" rx="2" fill="black" fill-opacity="0.3"/>
<rect x="8" y="3" width="59" height="3" rx="1.5" fill="white" fill-opacity="0.2"/>
</svg>
